<?xml version="1.0" encoding="UTF-8" standalone="no"?>
<!DOCTYPE svg PUBLIC "-//W3C//DTD SVG 1.1//EN" "http://www.w3.org/Graphics/SVG/1.1/DTD/svg11.dtd">
<svg width="100%" height="100%" viewBox="0 0 700 700" version="1.1" xmlns="http://www.w3.org/2000/svg" xmlns:xlink="http://www.w3.org/1999/xlink" xml:space="preserve" xmlns:serif="http://www.serif.com/" style="fill-rule:evenodd;clip-rule:evenodd;stroke-linejoin:round;stroke-miterlimit:2;">
    <g transform="matrix(0.990233,0,0,0.990233,-46.0923,-46.0926)">
        <path d="M85.059,46.552C84.432,46.542 83.805,46.548 83.178,46.57C75.853,46.816 70.813,49.28 67.377,52.716C62.795,57.297 59.939,64.73 61.77,76.63C63.605,88.53 70.65,104.37 85.633,121.85C191.717,245.616 293.344,364.912 372.669,453.053C391.845,474.359 409.689,493.802 425.989,511.075C444.888,461.228 480.005,426.475 524.273,409.958C507.359,394.022 488.436,376.656 467.716,358.008C379.578,278.683 260.278,177.053 136.514,70.969C119.036,55.984 103.194,48.941 91.294,47.106C89.231,46.781 87.148,46.595 85.059,46.552ZM671.167,48.181C670.687,48.177 670.23,48.188 669.8,48.217C666.344,48.447 664.581,49.239 662.65,51.172L619.556,94.266L705.737,180.444L748.828,137.35C750.762,135.419 751.555,133.659 751.781,130.203C752.016,126.75 751.203,121.713 748.963,115.884C744.478,104.228 734.467,89.842 722.314,77.689C710.161,65.536 695.775,55.525 684.119,51.041C679.019,49.08 674.528,48.213 671.17,48.181L671.167,48.181ZM599.67,114.15L584.202,129.62L599.67,145.086L619.556,164.975L635.025,180.441L654.914,200.33L670.38,215.798L685.848,200.33L599.67,114.152L599.67,114.15ZM564.316,149.506L427.77,286.053L444.125,300.634L579.784,164.975L564.316,149.506ZM599.67,184.864L465.152,319.38L481.509,333.959L615.139,200.33L599.67,184.863L599.67,184.864ZM635.028,220.214L502.536,352.706L518.894,367.288L650.497,235.684L635.031,220.216L635.028,220.216L635.028,220.214ZM300.877,412.948L113.538,600.291L129.003,615.756L315.475,429.284L300.877,412.948ZM547.22,431.928C499.625,443.845 464.033,477.528 447.833,533.831C456.664,542.87 464.952,551.152 472.489,558.373C484.333,569.723 494.514,578.697 502.505,584.869C505.281,557.955 518.2,533.209 536.325,515.039C552.889,498.433 574.6,486.905 597.458,485.208C591.411,477.652 583.178,468.411 573.037,457.828C565.478,449.942 556.762,441.23 547.22,431.928ZM334.247,450.284L148.889,635.639L164.358,651.111L348.85,466.62L334.247,450.284ZM367.623,487.619L184.247,670.995L199.709,686.464L382.225,503.955L367.623,487.619ZM602.456,513.098C586.211,513.313 569.755,521.348 556.234,534.903C538.208,552.973 527.056,579.983 530.817,606.311C539.152,664.658 567.927,709.139 608.098,733.242C643.611,754.548 688.492,760.352 738.791,744.153C700.944,737.888 666.173,696.177 663.483,665.014C680.092,685.036 700.889,703.369 723.523,714.623C708.084,679.345 709.147,643.603 706.198,614.12C704.086,592.992 700.119,575.086 688.422,559.18C676.725,543.273 656.511,528.242 618.516,515.577C613.34,513.854 607.911,513.016 602.456,513.098ZM98.784,625.311L98.78,625.314L98.783,625.317L98.786,625.311L98.784,625.311ZM98.783,625.317L79.85,672.661L127.337,720.153L174.689,701.216L164.361,690.884L144.467,670.998L129.002,655.533L109.111,635.645L98.783,625.317ZM68.478,701.075L48.178,751.819L98.925,731.519L68.478,701.073L68.478,701.075Z" style="fill-rule:nonzero;"/>
    </g>
</svg>
