<?xml version="1.0" encoding="UTF-8" standalone="no"?>
<!DOCTYPE svg PUBLIC "-//W3C//DTD SVG 1.1//EN" "http://www.w3.org/Graphics/SVG/1.1/DTD/svg11.dtd">
<svg width="100%" height="100%" viewBox="0 0 300 300" version="1.1" xmlns="http://www.w3.org/2000/svg" xmlns:xlink="http://www.w3.org/1999/xlink" xml:space="preserve" xmlns:serif="http://www.serif.com/" style="fill-rule:evenodd;clip-rule:evenodd;stroke-linejoin:round;stroke-miterlimit:2;">
    <g transform="matrix(3.51215,0,0,3.51215,-0.0935023,15.7827)">
        <path d="M46.3,26.5L26.9,26.5L20.8,16L52.4,16L61.6,0L9.4,0C6.055,-0.006 2.955,1.793 1.3,4.7C-0.398,7.599 -0.398,11.201 1.3,14.1L34.6,71.8C36.287,74.666 39.375,76.43 42.7,76.43C46.025,76.43 49.113,74.666 50.8,71.8L51.9,69.9L36.6,43.3L46.3,26.5Z" style="fill:rgb(74,210,149);fill-rule:nonzero;"/>
        <path d="M84.2,4.7C82.545,1.793 79.445,-0.006 76.1,-0L73.8,0L48.8,43.3L58,59.3L84.2,14C85.859,11.126 85.859,7.574 84.2,4.7Z" style="fill:rgb(74,210,149);fill-rule:nonzero;"/>
    </g>
</svg>
