<?xml version="1.0" encoding="UTF-8" standalone="no"?>
<svg
   viewBox="0 0 300 300"
   fill="currentColor"
   class="w-6 h-6"
   version="1.1"
   id="svg8"
   sodipodi:docname="logo.svg"
   width="300"
   height="300"
   inkscape:version="1.2.1 (9c6d41e410, 2022-07-14)"
   xmlns:inkscape="http://www.inkscape.org/namespaces/inkscape"
   xmlns:sodipodi="http://sodipodi.sourceforge.net/DTD/sodipodi-0.dtd"
   xmlns="http://www.w3.org/2000/svg"
   xmlns:svg="http://www.w3.org/2000/svg">
  <defs
     id="defs12">
        
    </defs>
  <sodipodi:namedview
     id="namedview10"
     pagecolor="#ffffff"
     bordercolor="#cccccc"
     borderopacity="1"
     inkscape:showpageshadow="0"
     inkscape:pageopacity="1"
     inkscape:pagecheckerboard="0"
     inkscape:deskcolor="#d1d1d1"
     showgrid="false"
     showguides="false"
     inkscape:zoom="0.74025242"
     inkscape:cx="307.3276"
     inkscape:cy="218.16882"
     inkscape:window-width="1920"
     inkscape:window-height="991"
     inkscape:window-x="-9"
     inkscape:window-y="-9"
     inkscape:window-maximized="1"
     inkscape:current-layer="g4186" />
  <g
     id="g612"
     transform="matrix(1.0356749,0,0,1.0356749,-226.41836,-23.576684)">
    <g
       id="g4186"
       transform="matrix(1.3361156,0,0,1.3361156,-71.236813,-56.332186)">
      <g
         id="g4121"
         transform="matrix(1.4668939,0,0,1.4668939,-168.00185,-78.250434)">
        <path
           fill-rule="evenodd"
           d="m 316.88162,140.35896 a 27.244595,27.244595 0 0 1 35.15889,-26.07697 3.8920849,3.8920849 0 0 1 1.6242,6.47642 l -17.22876,17.2238 c 0.32785,2.46495 1.43179,4.84691 3.32633,6.74108 1.894,1.89416 4.27602,2.99949 6.74617,3.32121 l 17.21854,-17.22375 a 3.8920849,3.8920849 0 0 1 6.47637,1.6243 27.244595,27.244595 0 0 1 -28.39658,35.05989 c -5.28268,-0.44608 -9.70434,0.51919 -11.98263,3.2901 l -37.10449,45.07036 a 17.114795,17.114795 0 1 1 -24.09962,-24.0946 l 45.06533,-37.10971 c 2.76574,-2.28339 3.7364,-6.69957 3.28977,-11.98245 a 27.722024,27.722024 0 0 1 -0.0913,-2.31968 z m -40.90808,64.21941 a 3.8920849,3.8920849 0 0 1 3.89228,-3.89212 h 0.0537 a 3.8920849,3.8920849 0 0 1 3.89174,3.89212 v 0.0431 a 3.8920849,3.8920849 0 0 1 -3.89174,3.89211 h -0.0537 a 3.8920849,3.8920849 0 0 1 -3.89228,-3.89211 z"
           clip-rule="evenodd"
           id="path181"
           style="fill:#0b5cff;fill-opacity:1;stroke-width:5.18945" />
        <path
           d="M 306.89726,150.16703 295.4752,138.75025 v -8.1267 a 3.8920849,3.8920849 0 0 0 -1.88862,-3.3368 l -19.46082,-11.67628 a 3.8920849,3.8920849 0 0 0 -4.75327,0.58643 l -3.89227,3.89211 a 3.8920849,3.8920849 0 0 0 -0.58637,4.75349 l 11.67627,19.46044 a 3.8920849,3.8920849 0 0 0 3.33708,1.88895 h 8.11615 l 10.70079,10.70063 8.17312,-6.7307 z"
           id="path183"
           style="fill:#0b5cff;fill-opacity:1;stroke-width:5.18945" />
        <path
           fill-rule="evenodd"
           d="m 319.76723,195.25808 21.70739,21.70229 a 17.514519,17.514519 0 0 0 24.7693,-24.76924 l -17.15621,-17.15108 a 35.303806,35.303806 0 0 1 -7.93987,0.22304 c -2.04502,-0.17628 -3.53915,-0.0323 -4.49958,0.21822 a 3.0565841,3.0565841 0 0 0 -0.86639,0.32676 z m 17.71677,-7.05761 a 3.8920849,3.8920849 0 0 1 5.50088,0 l 9.73013,9.7354 a 3.8920849,3.8920849 0 1 1 -5.50088,5.50083 l -9.73013,-9.73025 a 3.8920849,3.8920849 0 0 1 0,-5.50077 z"
           clip-rule="evenodd"
           id="path185"
           style="fill:#bb4600;fill-opacity:1;stroke-width:5.18945" />
      </g>
      <path
         d="m 412.81499,112.43343 -21.98397,21.98396 v 66.36052 l 21.98397,21.98397 c 7.71481,7.72299 20.92154,2.2556 20.92154,-8.66282 v -93.00281 c 0,-10.91843 -13.20673,-16.38582 -20.92154,-8.66282 z"
         style="clip-rule:evenodd;fill:#0b5cff;fill-opacity:1;fill-rule:nonzero;stroke-width:7.61911;stroke-linejoin:round;stroke-miterlimit:2"
         id="path2000" />
    </g>
  </g>
</svg>
