<?xml version="1.0" encoding="UTF-8" standalone="no"?>
<svg
   viewBox="0 0 346 346"
   fill="currentColor"
   class="w-6 h-6"
   version="1.1"
   id="svg8"
   sodipodi:docname="logo.svg"
   width="346"
   height="346"
   inkscape:version="1.2.1 (9c6d41e410, 2022-07-14)"
   xmlns:inkscape="http://www.inkscape.org/namespaces/inkscape"
   xmlns:sodipodi="http://sodipodi.sourceforge.net/DTD/sodipodi-0.dtd"
   xmlns="http://www.w3.org/2000/svg"
   xmlns:svg="http://www.w3.org/2000/svg">
  <defs
     id="defs12" />
  <sodipodi:namedview
     id="namedview10"
     pagecolor="#ffffff"
     bordercolor="#cccccc"
     borderopacity="1"
     inkscape:showpageshadow="0"
     inkscape:pageopacity="1"
     inkscape:pagecheckerboard="0"
     inkscape:deskcolor="#d1d1d1"
     showgrid="false"
     showguides="false"
     inkscape:zoom="1.4805048"
     inkscape:cx="309.01622"
     inkscape:cy="219.85744"
     inkscape:window-width="1920"
     inkscape:window-height="991"
     inkscape:window-x="-9"
     inkscape:window-y="-9"
     inkscape:window-maximized="1"
     inkscape:current-layer="g327" />
  <g
     id="g327"
     transform="matrix(1.6184016,0,0,1.6184016,0.09929487,-106.9841)">
    <g
       id="g6816"
       transform="matrix(16.475677,0,0,16.475677,-4705.4799,-2490.7662)">
      <path
         fill-rule="evenodd"
         d="m 292.08392,158.43543 a 3.2439415,3.2439415 0 0 1 4.18623,-3.10491 0.46342021,0.46342021 0 0 1 0.1934,0.77113 l -2.0514,2.05079 c 0.0389,0.2935 0.17054,0.57711 0.39607,0.80264 0.22553,0.22553 0.50914,0.35714 0.80326,0.39545 l 2.05017,-2.05079 a 0.46342021,0.46342021 0 0 1 0.77113,0.1934 3.2439415,3.2439415 0 0 1 -3.38111,4.17449 c -0.62902,-0.0531 -1.15546,0.0618 -1.42672,0.39175 l -4.41794,5.3664 a 2.0378131,2.0378131 0 1 1 -2.8695,-2.86888 l 5.36579,-4.41855 c 0.32934,-0.27188 0.44488,-0.7977 0.39175,-1.42672 a 3.3007877,3.3007877 0 0 1 -0.0111,-0.2762 z m -4.87085,7.64644 a 0.46342021,0.46342021 0 0 1 0.46342,-0.46342 h 0.005 a 0.46342021,0.46342021 0 0 1 0.46342,0.46342 v 0.005 a 0.46342021,0.46342021 0 0 1 -0.46342,0.46342 h -0.005 a 0.46342021,0.46342021 0 0 1 -0.46342,-0.46342 z"
         clip-rule="evenodd"
         id="path2"
         style="fill:#0b5cff;fill-opacity:1;stroke-width:0.617894" />
      <path
         d="m 290.8951,159.60325 -1.35999,-1.35937 v -0.96762 a 0.46342021,0.46342021 0 0 0 -0.22491,-0.3973 l -2.3171,-1.39026 a 0.46342021,0.46342021 0 0 0 -0.56599,0.0698 l -0.46342,0.46342 a 0.46342021,0.46342021 0 0 0 -0.0698,0.56599 l 1.39026,2.3171 a 0.46342021,0.46342021 0 0 0 0.3973,0.22491 h 0.96639 l 1.27409,1.2741 0.97319,-0.80141 z"
         id="path4"
         style="fill:#333333;fill-opacity:1;stroke-width:0.617894" />
      <path
         fill-rule="evenodd"
         d="m 292.42747,164.97213 2.58465,2.58403 a 2.0854064,2.0854064 0 0 0 2.94921,-2.94921 l -2.04276,-2.04214 a 4.2035302,4.2035302 0 0 1 -0.94538,0.0266 c -0.24345,-0.021 -0.4214,-0.004 -0.53571,0.026 a 0.36393934,0.36393934 0 0 0 -0.10319,0.0389 z m 2.10949,-0.84034 a 0.46342021,0.46342021 0 0 1 0.65497,0 l 1.15855,1.15917 a 0.46342021,0.46342021 0 1 1 -0.65497,0.65497 l -1.15855,-1.15855 a 0.46342021,0.46342021 0 0 1 0,-0.65497 z"
         clip-rule="evenodd"
         id="path6"
         style="fill:#ec6600;fill-opacity:1;stroke-width:0.617894" />
    </g>
  </g>
</svg>
