<?xml version="1.0" encoding="UTF-8" standalone="no"?>
<svg
   viewBox="0 0 300 300"
   fill="currentColor"
   class="w-6 h-6"
   version="1.1"
   id="svg8"
   sodipodi:docname="logo.svg"
   width="300"
   height="300"
   inkscape:version="1.2.1 (9c6d41e410, 2022-07-14)"
   xmlns:inkscape="http://www.inkscape.org/namespaces/inkscape"
   xmlns:sodipodi="http://sodipodi.sourceforge.net/DTD/sodipodi-0.dtd"
   xmlns="http://www.w3.org/2000/svg"
   xmlns:svg="http://www.w3.org/2000/svg">
  <defs
     id="defs12">
        
    </defs>
  <sodipodi:namedview
     id="namedview10"
     pagecolor="#ffffff"
     bordercolor="#cccccc"
     borderopacity="1"
     inkscape:showpageshadow="0"
     inkscape:pageopacity="1"
     inkscape:pagecheckerboard="0"
     inkscape:deskcolor="#d1d1d1"
     showgrid="false"
     showguides="false"
     inkscape:zoom="0.37012621"
     inkscape:cx="303.95038"
     inkscape:cy="214.7916"
     inkscape:window-width="1920"
     inkscape:window-height="991"
     inkscape:window-x="-9"
     inkscape:window-y="-9"
     inkscape:window-maximized="1"
     inkscape:current-layer="svg8" />
  <g
     id="g612"
     transform="matrix(1.0356749,0,0,1.0356749,-226.41836,-23.576684)">
    <path
       id="path622"
       style="clip-rule:evenodd;fill-rule:nonzero;stroke-width:14.2857;stroke-linejoin:round;stroke-miterlimit:2"
       d="m 261.47656,60.455078 c -23.51423,0 -42.85742,19.343179 -42.85742,42.857422 v 128.57031 c 0,23.51424 19.34319,42.85742 42.85742,42.85742 h 117.85742 c 23.51425,0 42.85547,-19.34318 42.85547,-42.85742 V 103.3125 c 0,-23.514243 -19.34122,-42.857422 -42.85547,-42.857422 z m 101.65821,28.660156 a 39.322742,39.322742 0 0 1 7.99023,1.544922 5.6175345,5.6175345 0 0 1 2.34375,9.347654 l -24.86719,24.86133 c 0.47187,3.55777 2.06692,6.99466 4.80078,9.72852 2.73386,2.73385 6.1711,4.32858 9.73633,4.79296 l 24.85352,-24.85937 a 5.6175345,5.6175345 0 0 1 9.34765,2.34375 39.322742,39.322742 0 0 1 -40.98632,50.60352 c -7.62486,-0.64413 -14.00486,0.74838 -17.29297,4.74804 l -53.55469,65.05078 A 24.702173,24.702173 0 1 1 250.7207,202.50195 l 65.04492,-53.56054 c 3.99219,-3.29561 5.3922,-9.67007 4.74805,-17.29493 a 40.011827,40.011827 0 0 1 -0.13476,-3.34765 39.322742,39.322742 0 0 1 42.75586,-39.183596 z m -108.04102,2.705078 a 5.6175345,5.6175345 0 0 1 3.57422,0.757813 l 28.08789,16.851565 a 5.6175345,5.6175345 0 0 1 2.72656,4.81836 v 11.72851 l 16.48242,16.47266 0.004,-0.002 v 0.008 l -0.004,-0.006 -11.79296,9.71289 -15.44532,-15.44531 h -11.71484 a 5.6175345,5.6175345 0 0 1 -4.81445,-2.72657 l -16.85352,-28.08789 a 5.6175345,5.6175345 0 0 1 0.8457,-6.861324 l 5.61914,-5.617188 a 5.6175345,5.6175345 0 0 1 3.28516,-1.603516 z m 111.76953,86.535158 24.76172,24.75391 a 25.279064,25.279064 0 0 1 -35.75,35.74804 l -31.33008,-31.32226 23.11328,-28.07227 a 4.4116372,4.4116372 0 0 1 1.25,-0.47266 c 1.38566,-0.35952 3.54502,-0.56913 6.4961,-0.31445 a 50.954784,50.954784 0 0 0 11.45898,-0.32031 z m -13.6582,17.41992 a 5.6175345,5.6175345 0 0 0 -3.08985,1.57422 v 0.008 a 5.6175345,5.6175345 0 0 0 0,7.9375 l 14.04297,14.04492 a 5.6175345,5.6175345 0 1 0 7.94141,-7.93945 L 358.05469,197.3498 a 5.6175345,5.6175345 0 0 0 -4.84961,-1.57422 z" />
    <path
       d="M 471.71394,262.58801 433.2854,224.15948 V 108.15959 l 38.42854,-38.428526 c 13.4857,-13.499986 36.57139,-3.942853 36.57139,15.142842 V 247.44517 c 0,19.08569 -23.08569,28.64283 -36.57139,15.14284 z"
       style="clip-rule:evenodd;fill-rule:nonzero;stroke-width:14.2857;stroke-linejoin:round;stroke-miterlimit:2"
       id="path619" />
  </g>
</svg>
