<?xml version="1.0" encoding="UTF-8" standalone="no"?>
<svg
   viewBox="0 0 346 346"
   fill="currentColor"
   class="w-6 h-6"
   version="1.1"
   id="svg8"
   sodipodi:docname="logo.svg"
   width="346"
   height="346"
   inkscape:version="1.2.1 (9c6d41e410, 2022-07-14)"
   xmlns:inkscape="http://www.inkscape.org/namespaces/inkscape"
   xmlns:sodipodi="http://sodipodi.sourceforge.net/DTD/sodipodi-0.dtd"
   xmlns="http://www.w3.org/2000/svg"
   xmlns:svg="http://www.w3.org/2000/svg">
  <defs
     id="defs12" />
  <sodipodi:namedview
     id="namedview10"
     pagecolor="#ffffff"
     bordercolor="#cccccc"
     borderopacity="1"
     inkscape:showpageshadow="0"
     inkscape:pageopacity="1"
     inkscape:pagecheckerboard="0"
     inkscape:deskcolor="#d1d1d1"
     showgrid="false"
     showguides="false"
     inkscape:zoom="1.4805048"
     inkscape:cx="309.01622"
     inkscape:cy="219.85744"
     inkscape:window-width="1920"
     inkscape:window-height="991"
     inkscape:window-x="-9"
     inkscape:window-y="-9"
     inkscape:window-maximized="1"
     inkscape:current-layer="g327" />
  <g
     id="g327"
     transform="matrix(1.6184016,0,0,1.6184016,0.09929487,-106.9841)">
    <path
       id="path4667"
       style="fill:#0b5cff;fill-opacity:1;stroke-width:10.1507"
       d="m 164.74609,66.617188 a 53.291193,53.291193 0 0 0 -57.94336,53.101562 h 0.004 a 54.225058,54.225058 0 0 0 0.17969,4.53711 c 0.78214,9.25141 -0.68075,17.11843 -4.87305,21.875 0.0739,0.0903 0.14919,0.17233 0.22266,0.26562 8.51018,0.44519 12.1608,13.36893 6.30468,19.74219 0.41782,-0.005 0.81573,0.0827 1.15821,0.26758 0.44512,0.24319 0.7809,0.64148 0.95898,1.20313 0.16783,0.55478 0.16747,1.27316 -0.0723,2.16015 l -0.0371,0.11328 c -0.0994,0.30132 -0.19316,0.69551 -0.28906,1.09961 -0.39037,1.70202 -0.82136,3.57492 -2.75977,3.46875 l -0.3125,-0.0351 c -0.0446,2.21915 -0.74643,3.68592 -1.81836,4.99414 -0.34245,0.41782 -0.81478,0.75053 -1.13672,1.22656 -1.17471,1.75344 -0.71234,2.39017 1.02735,3.87305 1.92803,1.65073 5,2.7211 5.97265,3.01562 3.84585,1.17032 7.85874,1.49298 11.01758,3.59375 L 132.1192,179.252 c 4.45639,-5.41997 13.10444,-7.30809 23.4375,-6.43554 a 53.291193,53.291193 0 0 0 55.54492,-68.57813 7.6130274,7.6130274 0 0 0 -12.66797,-3.17773 l -33.67968,33.6914 c -4.83169,-0.62929 -9.49061,-2.79106 -13.19532,-6.49609 -3.70577,-3.70505 -5.86652,-8.366 -6.50781,-13.1875 l 33.70117,-33.689454 a 7.6130274,7.6130274 0 0 0 -3.17773,-12.667968 53.291193,53.291193 0 0 0 -10.82813,-2.09375 z M 80.318359,164.35547 12.402344,220.28125 a 33.47702,33.47702 0 1 0 47.138672,47.12891 L 111.76172,203.97852 H 62.240234 c -0.530804,3e-5 -0.959075,-0.42761 -0.958984,-0.95508 0,-0.27398 0.03844,-0.5449 0.103516,-0.8086 1.537654,-12.16429 7.822747,-12.37739 14.589843,-14.14453 2.020527,-0.52741 5.704791,-1.64966 7.855469,-3.5332 1.178043,-1.03424 1.89362,-2.30611 1.609375,-3.83008 -1.63344,-1.51719 -2.889632,-3.15409 -3.173828,-6.27734 l -0.195313,0.006 c -0.455444,-0.007 -0.89518,-0.10892 -1.302734,-0.3418 -0.900674,-0.51371 -1.393102,-1.49341 -1.632812,-2.61328 -0.301352,-1.42122 -0.201982,-3.10634 -0.05469,-4.16797 l 0.05469,-0.20508 c 0.315092,-0.887 0.712885,-1.36289 1.21289,-1.56836 -0.01908,-0.3561 -0.02004,-0.79703 -0.0293,-1.18359 z" />
    <path
       d="M 87.272943,138.90315 64.931073,116.57161 V 100.67555 A 7.6130274,7.6130274 0 0 0 61.236879,94.14868 L 23.170968,71.309548 a 7.6130274,7.6130274 0 0 0 -9.297529,1.147074 l -7.6133898,7.613076 a 7.6130274,7.6130274 0 0 0 -1.146956,9.297962 l 22.8391118,38.06517 a 7.6130274,7.6130274 0 0 0 6.527423,3.69483 h 15.875417 l 20.931046,20.93074 15.986852,-13.16544 z"
       id="path4664"
       style="fill:#333333;fill-opacity:1;stroke-width:10.1507" />
    <path
       fill-rule="evenodd"
       d="m 112.44697,227.10251 42.46026,42.45029 a 34.258892,34.258892 0 0 0 48.44945,-48.44933 l -33.55803,-33.54799 a 69.055237,69.055237 0 0 1 -15.53061,0.43627 c -4.00012,-0.34481 -6.92268,-0.0632 -8.8013,0.42684 a 5.9787644,5.9787644 0 0 0 -1.69469,0.63916 z m 34.6545,-13.80488 a 7.6130274,7.6130274 0 0 1 10.75987,0 l 19.03241,19.04271 a 7.6130274,7.6130274 0 1 1 -10.75988,10.75978 l -19.0324,-19.03264 a 7.6130274,7.6130274 0 0 1 0,-10.75966 z"
       clip-rule="evenodd"
       id="path4661"
       style="fill:#ec6600;fill-opacity:1;stroke-width:10.1507" />
  </g>
</svg>
