<?xml version="1.0" encoding="UTF-8" standalone="no"?>
<!DOCTYPE svg PUBLIC "-//W3C//DTD SVG 1.1//EN" "http://www.w3.org/Graphics/SVG/1.1/DTD/svg11.dtd">
<svg width="100%" height="100%" viewBox="0 0 640 640" version="1.1" xmlns="http://www.w3.org/2000/svg" xmlns:xlink="http://www.w3.org/1999/xlink" xml:space="preserve" xmlns:serif="http://www.serif.com/" style="fill-rule:evenodd;clip-rule:evenodd;stroke-linejoin:round;stroke-miterlimit:2;">
    <g transform="matrix(1,0,0,1,0,-0.216)">
        <path d="M359.046,536.432L596.961,536.432C604.52,536.432 611.947,534.434 618.485,530.64C625.035,526.838 630.469,521.378 634.24,514.81C638.018,508.231 640.004,500.774 640,493.187C639.998,485.6 638.005,478.145 634.221,471.569L474.444,193.577C470.674,187.011 465.241,181.552 458.692,177.751C452.155,173.958 444.73,171.959 437.172,171.958C429.614,171.959 422.189,173.958 415.652,177.751C409.104,181.552 403.67,187.011 399.9,193.577L359.046,264.706L279.169,125.617C275.396,119.051 269.96,113.592 263.41,109.792C256.871,105.999 249.444,104.001 241.885,104C234.326,104.001 226.9,105.999 220.361,109.792C213.81,113.592 208.375,119.051 204.602,125.617L5.779,471.569C1.995,478.145 0.002,485.6 0,493.187C-0.004,500.774 1.982,508.231 5.76,514.81C9.531,521.378 14.965,526.838 21.515,530.64C28.053,534.434 35.48,536.432 43.039,536.432L192.382,536.432C251.554,536.432 295.191,510.324 325.217,459.388L398.115,332.573L437.161,264.706L554.344,468.565L398.115,468.565L359.046,536.432ZM190.064,468.472L85.725,468.472L241.955,196.675L319.907,332.573L267.715,423.405C247.775,456.454 225.122,468.495 189.948,468.495" style="fill:rgb(0,220,130);fill-rule:nonzero;"/>
    </g>
</svg>
