<?xml version="1.0" encoding="UTF-8" standalone="no"?>
<!DOCTYPE svg PUBLIC "-//W3C//DTD SVG 1.1//EN" "http://www.w3.org/Graphics/SVG/1.1/DTD/svg11.dtd">
<svg width="100%" height="100%" viewBox="0 0 468 468" version="1.1" xmlns="http://www.w3.org/2000/svg" xmlns:xlink="http://www.w3.org/1999/xlink" xml:space="preserve" xmlns:serif="http://www.serif.com/" style="fill-rule:evenodd;clip-rule:evenodd;stroke-linejoin:round;stroke-miterlimit:2;">
    <g transform="matrix(1,0,0,1,56.8425,-16)">
        <path d="M92.418,16.013L43.208,85.323L43.208,124.502L0.386,144.87L0,144.69L0,400.295L166.955,479.172L177.158,483.987L187.36,479.172L354.315,400.295L354.315,144.689L354.001,144.838L311.166,124.462L311.166,85.324L309.668,83.216L261.954,16.013L212.742,85.323L212.742,85.393L176.932,34.96L141.402,85.004L140.132,83.216L92.418,16.013ZM101.125,56.273L120.158,83.08L64.678,83.08L83.491,56.588L101.125,56.273ZM270.658,56.273L289.694,83.08L234.214,83.08L253.022,56.588L270.658,56.273ZM185.638,75.223L204.672,102.026L149.198,102.026L168.005,75.535L185.638,75.223ZM59.419,96.589L85.73,96.589L85.73,185.19L59.417,172.758L59.419,96.589ZM99.241,96.589L125.422,96.589L125.422,203.939L99.24,191.57L99.241,96.589ZM228.957,96.589L255.267,96.589L255.267,191.479L228.957,203.909L228.957,96.589ZM268.774,96.589L294.954,96.589L294.954,172.729L268.774,185.096L268.774,96.589ZM143.935,115.535L170.248,115.535L170.248,225.114L143.935,212.682L143.935,115.535ZM183.757,115.535L209.937,115.535L209.937,212.895L183.757,225.265L183.757,115.535ZM311.162,144.655L334.329,154.126L311.162,165.07L311.162,144.655ZM43.208,144.689L43.208,165.102L20.046,154.159L43.208,144.689ZM20.403,176.895L166.955,246.126L166.955,456.601L20.403,387.371L20.403,176.895ZM333.91,176.895L333.91,387.37L187.36,456.601L187.36,246.126L333.91,176.895Z" style="fill-rule:nonzero;"/>
    </g>
</svg>
