<?xml version="1.0" encoding="UTF-8" standalone="no"?>
<!DOCTYPE svg PUBLIC "-//W3C//DTD SVG 1.1//EN" "http://www.w3.org/Graphics/SVG/1.1/DTD/svg11.dtd">
<svg width="100%" height="100%" viewBox="0 0 300 300" version="1.1" xmlns="http://www.w3.org/2000/svg" xmlns:xlink="http://www.w3.org/1999/xlink" xml:space="preserve" xmlns:serif="http://www.serif.com/" style="fill-rule:evenodd;clip-rule:evenodd;stroke-linejoin:round;stroke-miterlimit:2;">
    <g transform="matrix(2.23631,0,0,2.23631,0.0084348,31.7192)">
        <g>
            <g transform="matrix(1,0,0,1,-3562.69,-2672.36)">
                <path d="M3694.87,2733.93L3686.14,2728.78L3633.08,2760.06C3631.03,2761.26 3628.49,2761.26 3626.44,2760.06L3573.38,2728.79L3564.66,2733.93C3563.44,2734.64 3562.69,2735.96 3562.69,2737.38C3562.69,2738.8 3563.44,2740.11 3564.66,2740.83L3626.45,2777.24C3628.49,2778.44 3631.04,2778.44 3633.09,2777.24L3694.87,2740.83C3696.09,2740.11 3696.84,2738.79 3696.84,2737.38C3696.84,2735.96 3696.09,2734.65 3694.87,2733.93Z" style="fill:rgb(187,192,196);fill-rule:nonzero;"/>
            </g>
            <g transform="matrix(1,0,0,1,-3562.69,-2691.24)">
                <path d="M3694.87,2735.46L3633.09,2771.87C3631.04,2773.08 3628.49,2773.08 3626.45,2771.87L3564.66,2735.46C3563.44,2734.74 3562.69,2733.43 3562.69,2732.01C3562.69,2730.59 3563.44,2729.28 3564.66,2728.56L3626.45,2692.15C3628.49,2690.94 3631.04,2690.94 3633.09,2692.15L3694.87,2728.56C3696.09,2729.28 3696.84,2730.59 3696.84,2732.01C3696.84,2733.43 3696.09,2734.74 3694.87,2735.46L3694.87,2735.46Z" style="fill:rgb(85,98,109);fill-rule:nonzero;"/>
            </g>
        </g>
    </g>
</svg>
