<?xml version="1.0" encoding="UTF-8" standalone="no"?>
<svg
   viewBox="0 0 24 24"
   fill="currentColor"
   class="w-6 h-6"
   version="1.1"
   id="svg8"
   sodipodi:docname="tools.svg"
   inkscape:version="1.2.1 (9c6d41e410, 2022-07-14)"
   xmlns:inkscape="http://www.inkscape.org/namespaces/inkscape"
   xmlns:sodipodi="http://sodipodi.sourceforge.net/DTD/sodipodi-0.dtd"
   xmlns="http://www.w3.org/2000/svg"
   xmlns:svg="http://www.w3.org/2000/svg">
  <defs
     id="defs12" />
  <sodipodi:namedview
     id="namedview10"
     pagecolor="#ffffff"
     bordercolor="#cccccc"
     borderopacity="1"
     inkscape:showpageshadow="0"
     inkscape:pageopacity="1"
     inkscape:pagecheckerboard="0"
     inkscape:deskcolor="#d1d1d1"
     showgrid="false"
     inkscape:zoom="33.5"
     inkscape:cx="12.014925"
     inkscape:cy="12.014925"
     inkscape:window-width="1920"
     inkscape:window-height="991"
     inkscape:window-x="-9"
     inkscape:window-y="-9"
     inkscape:window-maximized="1"
     inkscape:current-layer="svg8" />
  <path
     fill-rule="evenodd"
     d="M12 6.75a5.25 5.25 0 016.775-5.025.75.75 0 01.313 1.248l-3.32 3.319c.063.475.276.934.641 1.299.365.365.824.578 1.3.64l3.318-3.319a.75.75 0 011.248.313 5.25 5.25 0 01-5.472 6.756c-1.018-.086-1.87.1-2.309.634L7.344 21.3A3.298 3.298 0 112.7 16.657l8.684-7.151c.533-.44.72-1.291.634-2.309A5.342 5.342 0 0112 6.75zM4.117 19.125a.75.75 0 01.75-.75h.008a.75.75 0 01.75.75v.008a.75.75 0 01-.75.75h-.008a.75.75 0 01-.75-.75v-.008z"
     clip-rule="evenodd"
     id="path2"
     style="fill:#0b5cff;fill-opacity:1" />
  <path
     d="M10.076 8.64l-2.201-2.2V4.874a.75.75 0 00-.364-.643l-3.75-2.25a.75.75 0 00-.916.113l-.75.75a.75.75 0 00-.113.916l2.25 3.75a.75.75 0 00.643.364h1.564l2.062 2.062 1.575-1.297z"
     id="path4"
     style="fill:#333333;fill-opacity:1" />
  <path
     fill-rule="evenodd"
     d="M12.556 17.329l4.183 4.182a3.375 3.375 0 004.773-4.773l-3.306-3.305a6.803 6.803 0 01-1.53.043c-.394-.034-.682-.006-.867.042a.589.589 0 00-.167.063l-3.086 3.748zm3.414-1.36a.75.75 0 011.06 0l1.875 1.876a.75.75 0 11-1.06 1.06L15.97 17.03a.75.75 0 010-1.06z"
     clip-rule="evenodd"
     id="path6"
     style="fill:#ec6600;fill-opacity:1" />
</svg>
