<?xml version="1.0" encoding="UTF-8" standalone="no"?>
<!DOCTYPE svg PUBLIC "-//W3C//DTD SVG 1.1//EN" "http://www.w3.org/Graphics/SVG/1.1/DTD/svg11.dtd">
<svg width="100%" height="100%" viewBox="0 0 2500 2500" version="1.1" xmlns="http://www.w3.org/2000/svg" xmlns:xlink="http://www.w3.org/1999/xlink" xml:space="preserve" xmlns:serif="http://www.serif.com/" style="fill-rule:evenodd;clip-rule:evenodd;stroke-linejoin:round;stroke-miterlimit:2;">
    <path d="M2500,244.141C2500,109.396 2390.6,0 2255.86,0L244.141,0C109.396,0 0,109.396 0,244.141L0,2255.86C0,2390.6 109.396,2500 244.141,2500L2255.86,2500C2390.6,2500 2500,2390.6 2500,2255.86L2500,244.141Z" style="fill:url(#_Linear1);"/>
    <path d="M2175,442.188C2175,377.51 2122.49,325 2057.81,325L1529.69,325C1465.01,325 1412.5,377.51 1412.5,442.188L1412.5,1301.56C1412.5,1366.24 1465.01,1418.75 1529.69,1418.75L2057.81,1418.75C2122.49,1418.75 2175,1366.24 2175,1301.56L2175,442.188Z" style="fill:white;"/>
    <path d="M1087.5,442.188C1087.5,377.51 1034.99,325 970.313,325L442.187,325C377.51,325 325,377.51 325,442.188L325,1926.56C325,1991.24 377.51,2043.75 442.187,2043.75L970.313,2043.75C1034.99,2043.75 1087.5,1991.24 1087.5,1926.56L1087.5,442.188Z" style="fill:white;"/>
    <defs>
        <linearGradient id="_Linear1" x1="0" y1="0" x2="1" y2="0" gradientUnits="userSpaceOnUse" gradientTransform="matrix(1.53081e-13,2500,-2500,1.53081e-13,1250,0)"><stop offset="0" style="stop-color:rgb(0,145,230);stop-opacity:1"/><stop offset="1" style="stop-color:rgb(0,121,191);stop-opacity:1"/></linearGradient>
    </defs>
</svg>
