<?xml version="1.0" encoding="UTF-8" standalone="no"?>
<!DOCTYPE svg PUBLIC "-//W3C//DTD SVG 1.1//EN" "http://www.w3.org/Graphics/SVG/1.1/DTD/svg11.dtd">
<svg width="100%" height="100%" viewBox="0 0 300 300" version="1.1" xmlns="http://www.w3.org/2000/svg" xmlns:xlink="http://www.w3.org/1999/xlink" xml:space="preserve" xmlns:serif="http://www.serif.com/" style="fill-rule:evenodd;clip-rule:evenodd;stroke-linejoin:round;stroke-miterlimit:2;">
    <g transform="matrix(2.34375,0,0,2.34375,2.01956e-14,-0.162738)">
        <path id="path3178" d="M61.156,42.522C58.862,48.264 56.652,57.767 53.983,46.835C51.981,39.07 47.704,51.7 44.594,53.866C38.321,58.634 34.849,65.354 32.063,72.553C24.685,66.28 27.452,76.348 27,81.272C27.402,88.653 26.199,96.724 27.594,103.678C33.448,108.78 37.684,116.832 46.396,116.728C52.355,118.799 51.609,109.788 57.013,117.266C61.985,124.082 65.056,120.096 68.303,116.743C73.046,124.004 74.499,108.056 78.5,115.209C84.684,117.616 90.229,118.761 91.244,110.599C92.514,104.153 103.597,104.022 101,96.272C100.638,88.231 101.719,79.616 100.469,71.928C96.271,68.652 93.033,61.087 88.25,60.428C82.332,63.3 84.613,50.638 82.177,46.912C81.381,37.126 79.285,41.551 77.006,48.261C75.745,57.923 70.445,53.317 67.737,46.994C65.329,44.969 62.584,34.271 61.156,42.522Z" style="fill:rgb(243,229,23);"/>
        <g id="g3305" transform="matrix(1,0,0,1,0,0.271869)">
            <g id="g3122">
                <clipPath id="_clip1">
                    <path d="M30,94L32,96L35,106L36,94L39,109L39,90L41,95L44,109L44,90L46,92L49,109L52,86L58.616,111.92L59,96L61,90L63,115L69,90L71,111L76,89L81,113L82,95L85,89L86,112L91,90L94,100L95,91L98,97L98,78L95,86L94,69L92,82L90,78L89,64L84,83L83,79L80,49L77,75L75,83L71,56L67,79L65,85L64,43.695L58,90L52,48L49,84L47,80L45,56L44,80L41,87L39,63L37,82L34,77L34,91L30,76L30,94Z"/>
                </clipPath>
                <g clip-path="url(#_clip1)">
                    <rect id="path3120" x="28" y="43" width="72" height="73" style="fill:rgb(255,121,1);"/>
                    <path id="path3118" d="M29,80L37,85L40,76L45,82L51,72L53,84L55,76L58,82L59,76C59,76 62,84 62,83C62,82 66,68 66,68L70,81L76,69L79,82L84,73L87,82L92,77L98,83L98,91L94,94L88,92L84,90L83,100L81,90L77,99L71,90L69,99L65,93L60,106L57,91L51,94L47,88L45,98L41,93L37,98L35,95L29,96L29,80Z" style="fill:rgb(255,1,1);"/>
                </g>
            </g>
        </g>
        <g id="g2792" transform="matrix(1,0,0,1,0,0.271869)">
            <clipPath id="_clip2">
                <path d="M64,6.875C50.737,6.875 38.641,11.016 29.719,17.969C20.796,24.922 15,34.87 15,45.938L15,49.938C6.141,54.426 -0,66.2 0,80C0,97.664 10.049,112 23,112L23,45.938C23,37.649 27.29,30.022 34.656,24.281C42.023,18.541 52.425,14.875 64,14.875C75.575,14.875 85.977,18.541 93.344,24.281C100.71,30.022 105,37.649 105,45.938L105,112C117.951,112 128,97.664 128,80C128,66.2 121.859,54.426 113,49.938L113,45.938C113,34.87 107.204,24.922 98.281,17.969C89.359,11.016 77.263,6.875 64,6.875ZM26,49L26,112C28,112 30,111 31,109L31,51C30,50 28,49 26,49ZM102,49C100,49 98,50 97,51L97,109C98,111 100,112 102,112L102,49Z"/>
            </clipPath>
            <g clip-path="url(#_clip2)">
                <path id="path2127" d="M64,6.875C50.737,6.875 38.641,11.016 29.719,17.969C20.796,24.922 15,34.87 15,45.938L15,49.938C6.141,54.426 -0,66.2 0,80C0,97.664 10.049,112 23,112L23,45.938C23,37.649 27.29,30.022 34.656,24.281C42.023,18.541 52.425,14.875 64,14.875C75.575,14.875 85.977,18.541 93.344,24.281C100.71,30.022 105,37.649 105,45.938L105,112C117.951,112 128,97.664 128,80C128,66.2 121.859,54.426 113,49.938L113,45.938C113,34.87 107.204,24.922 98.281,17.969C89.359,11.016 77.263,6.875 64,6.875ZM26,49L26,112C28,112 30,111 31,109L31,51C30,50 28,49 26,49ZM102,49C100,49 98,50 97,51L97,109C98,111 100,112 102,112L102,49Z" style="fill:rgb(0,0,204);fill-rule:nonzero;"/>
            </g>
        </g>
    </g>
</svg>
