<?xml version="1.0" encoding="UTF-8" standalone="no"?>
<!DOCTYPE svg PUBLIC "-//W3C//DTD SVG 1.1//EN" "http://www.w3.org/Graphics/SVG/1.1/DTD/svg11.dtd">
<svg width="100%" height="100%" viewBox="0 0 2500 2500" version="1.1" xmlns="http://www.w3.org/2000/svg" xmlns:xlink="http://www.w3.org/1999/xlink" xml:space="preserve" xmlns:serif="http://www.serif.com/" style="fill-rule:evenodd;clip-rule:evenodd;stroke-linejoin:round;stroke-miterlimit:2;">
    <g transform="matrix(1.00133,0,0,1.00133,339.441,-0.249432)">
        <path d="M0,2015.5L15.118,1994.34L730.104,637.671L731.614,623.308L416.442,31.282C390.022,-18.31 315.678,-5.769 307.019,49.747L0,2015.5Z" style="fill:rgb(255,194,74);fill-rule:nonzero;"/>
        <path id="a" d="M8.923,1999.37L20.352,1977.07L727.854,634.616L413.458,40.183C387.331,-8.888 320.976,3.623 312.402,58.556L8.923,1999.37Z" style="fill:rgb(255,167,18);"/>
        <path d="M961.383,1071.12L1196.06,830.781L961.312,382.651C939.03,340.23 876.813,340.102 854.766,382.651L729.342,621.827L729.342,642.193L961.376,1071.12L961.383,1071.12Z" style="fill:rgb(244,189,98);fill-rule:nonzero;"/>
        <path id="c" d="M957.196,1061.11L1185.35,827.449L957.196,393.012C935.534,351.774 882.902,347.451 861.467,388.811L735.388,631.704L731.614,644.123L957.196,1061.11Z" style="fill:rgb(255,165,14);"/>
        <path d="M0,2015.5L6.85,2008.61L31.746,1998.5L946.643,1087L958.236,1055.44L730.005,620.531L0,2015.5Z" style="fill:rgb(246,130,12);fill-rule:nonzero;"/>
        <path d="M990.694,2475.19L1818.7,2013.41L1582.25,557.182C1574.85,511.621 1518.96,493.612 1486.34,526.276L0,2015.5L823.255,2475.16C875.228,2504.17 938.709,2504.19 990.694,2475.19" style="fill:rgb(253,224,104);fill-rule:nonzero;"/>
        <path d="M1811.28,2009.54L1576.62,564.367C1569.29,519.148 1522.8,500.441 1490.44,532.863L9.186,2012.67L823.405,2467.76C874.98,2496.56 937.978,2496.58 989.569,2467.81L1811.29,2009.53L1811.28,2009.54Z" style="fill:rgb(252,202,63);fill-rule:nonzero;"/>
        <path d="M990.687,2461.58C938.704,2490.58 875.226,2490.56 823.255,2461.55L6.63,2008.5L0.007,2015.5L823.255,2475.16C875.228,2504.17 938.709,2504.19 990.694,2475.19L1818.7,2013.41L1816.67,2000.93L990.694,2461.59L990.687,2461.58Z" style="fill:rgb(238,171,55);fill-rule:nonzero;"/>
    </g>
</svg>
