<?xml version="1.0" encoding="UTF-8" standalone="no"?>
<!DOCTYPE svg PUBLIC "-//W3C//DTD SVG 1.1//EN" "http://www.w3.org/Graphics/SVG/1.1/DTD/svg11.dtd">
<svg width="100%" height="100%" viewBox="0 0 980 980" version="1.1" xmlns="http://www.w3.org/2000/svg" xmlns:xlink="http://www.w3.org/1999/xlink" xml:space="preserve" xmlns:serif="http://www.serif.com/" style="fill-rule:evenodd;clip-rule:evenodd;stroke-linejoin:round;stroke-miterlimit:2;">
    <g transform="matrix(0.1,0,0,-0.1,-10.0071,500.997)">
        <g>
            <path d="M4540.3,4778.5C2842.1,3931.1 1627.6,2411.3 1233,651.3C879.6,-933.7 1191.8,-2264.9 2162.7,-3290.7C2286.2,-3424.5 2372,-3530.9 2354.8,-3530.9C2265.6,-3530.9 1727,-3150.1 1507.4,-2937.4C1078.7,-2511.9 739,-1911.5 584.6,-1314.6C509.1,-1016.1 505.7,-1009.2 406.2,-1009.2C330.7,-1009.2 293,-1033.2 262.1,-1095C138.6,-1352.3 56.2,-2628.6 124.9,-3198.1L155.8,-3428L536.6,-3681.9C2114.8,-4731.7 4015.5,-5030.2 5775.5,-4501.8C6228.4,-4368 6835.6,-4086.7 7192.4,-3849.9C7923.2,-3366.2 8520.1,-2542.8 8774,-1678.2L8859.8,-1386.6L8859.8,-1716C8863.2,-1894.4 8846.1,-2134.6 8825.5,-2247.8C8708.8,-2923.7 8283.4,-3702.5 7813.4,-4100.4C7683,-4210.2 7628.1,-4285.7 7628.1,-4344C7628.1,-4556.7 7967.8,-4470.9 8791.2,-4059.2C9443.1,-3729.8 9827.3,-3455.4 9868.5,-3290.7C9920,-3064.3 9906.3,-1963 9844.5,-1592.4C9607.6,-175.5 8993.5,1028.7 8043.2,1931C6808.1,3111.2 5439.2,3529.7 4018.9,3159.2C3699.8,3076.9 3761.6,3131.8 4248.8,3368.5C4986.4,3725.3 5847.6,3797.4 6581.7,3567.5C6917.9,3461.1 7014,3492 6962.5,3684.1C6941.9,3776.7 6471.9,4164.4 6067.1,4428.6C5765.2,4624.2 5068.8,4977.5 4986.4,4977.5C4958.9,4977.5 4756.5,4888.3 4540.3,4778.5ZM6101.3,1135C6911,963.5 7610.9,634.1 8060.3,219C8197.5,92.1 8204.4,74.9 8228.4,-168.7C8290.1,-844.6 8015.7,-1578.7 7494.2,-2134.5C7096.2,-2556.5 6595.4,-2851.6 5964.1,-3036.8C5579.8,-3146.6 4862.8,-3187.8 4447.7,-3119.1C3943.4,-3040.2 3387.6,-2824.1 2996.5,-2559.9C2186.8,-2011 1685.9,-1019.5 1782,-165.3C1802.5,20 1823.1,68.1 1939.8,195C2118.2,387.1 2557.3,668.4 2945,836.6C3284.7,984.1 3878.2,1145.4 4272.7,1200.3C4687.8,1255.1 5703.4,1220.8 6101.3,1135Z" style="fill-rule:nonzero;"/>
            <path d="M4602.1,860.6C4437.4,812.6 4427.1,788.5 4533.5,723.4C4725.6,606.7 4797.7,459.2 4797.7,184.8C4797.7,-89.7 4746.2,-192.6 4540.4,-329.8C4255.6,-525.4 3864.5,-443 3662.1,-144.5L3590,-34.9L3545.4,-179C3281.2,-1057.3 3854.2,-1966.5 4770.2,-2127.7C5507.8,-2258.1 6286.6,-1746.9 6475.3,-1009.3C6681.1,-223.6 6259.2,562 5487.2,826.2C5274.5,898.3 4790.8,918.9 4602.1,860.6Z" style="fill-rule:nonzero;"/>
        </g>
    </g>
</svg>
