<?xml version="1.0" encoding="UTF-8" standalone="no"?>
<!DOCTYPE svg PUBLIC "-//W3C//DTD SVG 1.1//EN" "http://www.w3.org/Graphics/SVG/1.1/DTD/svg11.dtd">
<svg width="100%" height="100%" viewBox="0 0 300 300" version="1.1" xmlns="http://www.w3.org/2000/svg" xmlns:xlink="http://www.w3.org/1999/xlink" xml:space="preserve" xmlns:serif="http://www.serif.com/" style="fill-rule:evenodd;clip-rule:evenodd;stroke-linejoin:round;stroke-miterlimit:2;">
    <g transform="matrix(3,0,0,3,0,0)">
        <rect x="0" y="0" width="12.138" height="12.14" style="fill:rgb(142,217,0);fill-rule:nonzero;"/>
        <rect x="0" y="87.862" width="12.138" height="12.14" style="fill:rgb(142,217,0);fill-rule:nonzero;"/>
        <rect x="87.86" y="0" width="12.14" height="12.14" style="fill:rgb(142,217,0);fill-rule:nonzero;"/>
        <rect x="87.86" y="87.862" width="12.14" height="12.14" style="fill:rgb(142,217,0);fill-rule:nonzero;"/>
        <path d="M50,0.032C22.386,0.032 0,22.386 0,50C0,77.615 22.386,100 50,100C77.614,100 100,77.615 100,50C100,22.386 77.614,0.032 50,0.032ZM50,12.032C70.987,12.032 88,29.014 88,50C88,70.987 70.987,88.032 50,88.032C29.014,88.032 12,70.987 12,50C12,29.014 29.014,12.032 50,12.032Z" style="fill:rgb(142,217,0);fill-rule:nonzero;"/>
        <path d="M100,56L24,56L24,62L0,62L0,38L24,38L24,44L100,44L100,56Z" style="fill:rgb(77,77,77);fill-rule:nonzero;"/>
    </g>
</svg>
