<?xml version="1.0" encoding="UTF-8" standalone="no"?>
<svg
   viewBox="0 0 512 512"
   fill="currentColor"
   class="w-6 h-6"
   version="1.1"
   id="svg8"
   sodipodi:docname="logo-img-generator.svg"
   width="512"
   height="512"
   inkscape:version="1.2.1 (9c6d41e410, 2022-07-14)"
   xmlns:inkscape="http://www.inkscape.org/namespaces/inkscape"
   xmlns:sodipodi="http://sodipodi.sourceforge.net/DTD/sodipodi-0.dtd"
   xmlns="http://www.w3.org/2000/svg"
   xmlns:svg="http://www.w3.org/2000/svg">
  <defs
     id="defs12" />
  <sodipodi:namedview
     id="namedview10"
     pagecolor="#ffffff"
     bordercolor="#cccccc"
     borderopacity="1"
     inkscape:showpageshadow="0"
     inkscape:pageopacity="1"
     inkscape:pagecheckerboard="0"
     inkscape:deskcolor="#d1d1d1"
     showgrid="false"
     showguides="false"
     inkscape:zoom="1.046875"
     inkscape:cx="308.0597"
     inkscape:cy="218.26865"
     inkscape:window-width="1920"
     inkscape:window-height="991"
     inkscape:window-x="-9"
     inkscape:window-y="-9"
     inkscape:window-maximized="1"
     inkscape:current-layer="g298" />
  <g
     id="g612"
     transform="matrix(1.0356749,0,0,1.0356749,-226.41836,-23.576684)">
    <g
       id="g4186"
       transform="matrix(1.3361156,0,0,1.3361156,-71.236813,-56.332186)">
      <path
         d="m 224.54912,329.85955 h 32.96764 c -2.78223,-0.72266 -4.87794,-3.29532 -4.87794,-6.29435 V 149.86002 c 0,-3.5627 2.93399,-6.49669 6.49669,-6.49669 h 272.37686 c 3.5627,0 6.4967,2.93399 6.4967,6.49669 v 52.6456 c -3.3098,-2.47149 -6.7207,-4.32149 -10.2112,-5.62228 V 153.53835 H 263.75329 V 321.7152 H 431.4821 c -1.61153,4.52384 -2.86895,9.89318 -3.72891,16.2887 l -0.28184,1.76329 c -0.16621,1.34414 -0.27461,2.48594 -0.27461,3.22305 0,0.68652 0.0289,1.37305 0.0939,2.04512 H 224.54912 c -4.19141,0 -7.60958,-3.41817 -7.60958,-7.60958 0,-4.15529 3.41817,-7.56623 7.60958,-7.56623 z m 253.63835,-91.75582 c 18.0592,-22.32289 38.879,-34.46354 54.5173,-14.60491 17.958,0.93945 25.6615,28.21255 13.3041,41.66121 0.8816,-0.007 1.7199,0.17343 2.4426,0.56367 0.9394,0.51308 1.6476,1.35137 2.0234,2.53653 0.3541,1.1707 0.3541,2.68828 -0.1517,4.55996 l -0.08,0.23848 c -0.2096,0.63594 -0.4047,1.467 -0.6071,2.31973 -0.8238,3.59161 -1.7343,7.54455 -5.8246,7.32052 l -0.6576,-0.0723 c -0.094,4.68282 -1.5754,7.77579 -3.8373,10.53634 -0.7227,0.88165 -1.7199,1.58262 -2.3992,2.58712 -2.4788,3.7 -1.5032,5.04415 2.1679,8.17325 4.0686,3.48321 10.5508,5.74513 12.6032,6.36662 15.1035,4.5961 31.4862,2.86172 35.0416,31.01646 0.1301,0.55644 0.2096,1.11289 0.2096,1.68379 0,1.11289 -0.9033,2.01621 -2.0234,2.01621 H 448.09599 c -1.12011,0 -2.02344,-0.90332 -2.02344,-2.01621 0,-0.57813 0.0795,-1.14903 0.2168,-1.70547 3.24473,-25.6688 16.5055,-26.11685 30.78522,-29.84576 4.2637,-1.11289 12.0395,-3.48321 16.5778,-7.45782 2.4859,-2.18243 3.9962,-4.86349 3.3964,-8.07931 -3.447,-3.20138 -6.0992,-6.65568 -6.699,-13.24632 l -0.4119,0.007 c -0.9611,-0.0145 -1.8861,-0.23125 -2.7461,-0.72266 -1.9006,-1.08398 -2.9412,-3.15078 -3.4471,-5.51387 -0.6359,-2.99903 -0.4263,-6.55451 -0.1156,-8.79475 l 0.1156,-0.43359 c 0.6649,-1.87168 1.5031,-2.87618 2.5582,-3.30977 -0.4769,-8.90314 1.0334,-23.01664 -8.1154,-25.78442 z m -92.69529,94.59586 h 21.3762 c 4.82736,0 4.82736,7.30607 0,7.30607 h -21.3762 c -4.82736,0 -4.84904,-7.30607 0,-7.30607 z"
         id="path434"
         style="stroke-width:0.722658;fill:#0b5cff;fill-opacity:1" />
      <g
         id="g298"
         transform="matrix(0.60689168,0,0,0.60689168,199.66263,134.89244)">
        <g
           id="g4121"
           transform="matrix(1.4668939,0,0,1.4668939,-168.00185,-78.250434)">
          <path
             fill-rule="evenodd"
             d="m 316.88162,140.35896 a 27.244595,27.244595 0 0 1 35.15889,-26.07697 3.8920849,3.8920849 0 0 1 1.6242,6.47642 l -17.22876,17.2238 c 0.32785,2.46495 1.43179,4.84691 3.32633,6.74108 1.894,1.89416 4.27602,2.99949 6.74617,3.32121 l 17.21854,-17.22375 a 3.8920849,3.8920849 0 0 1 6.47637,1.6243 27.244595,27.244595 0 0 1 -28.39658,35.05989 c -5.28268,-0.44608 -9.70434,0.51919 -11.98263,3.2901 l -37.10449,45.07036 a 17.114795,17.114795 0 1 1 -24.09962,-24.0946 l 45.06533,-37.10971 c 2.76574,-2.28339 3.7364,-6.69957 3.28977,-11.98245 a 27.722024,27.722024 0 0 1 -0.0913,-2.31968 z m -40.90808,64.21941 a 3.8920849,3.8920849 0 0 1 3.89228,-3.89212 h 0.0537 a 3.8920849,3.8920849 0 0 1 3.89174,3.89212 v 0.0431 a 3.8920849,3.8920849 0 0 1 -3.89174,3.89211 h -0.0537 a 3.8920849,3.8920849 0 0 1 -3.89228,-3.89211 z"
             clip-rule="evenodd"
             id="path181"
             style="fill:#0b5cff;fill-opacity:1;stroke-width:5.18945" />
          <path
             d="M 306.89726,150.16703 295.4752,138.75025 v -8.1267 a 3.8920849,3.8920849 0 0 0 -1.88862,-3.3368 l -19.46082,-11.67628 a 3.8920849,3.8920849 0 0 0 -4.75327,0.58643 l -3.89227,3.89211 a 3.8920849,3.8920849 0 0 0 -0.58637,4.75349 l 11.67627,19.46044 a 3.8920849,3.8920849 0 0 0 3.33708,1.88895 h 8.11615 l 10.70079,10.70063 8.17312,-6.7307 z"
             id="path183"
             style="fill:#bb4600;fill-opacity:1;stroke-width:5.18945" />
          <path
             fill-rule="evenodd"
             d="m 319.76723,195.25808 21.70739,21.70229 a 17.514519,17.514519 0 0 0 24.7693,-24.76924 l -17.15621,-17.15108 a 35.303806,35.303806 0 0 1 -7.93987,0.22304 c -2.04502,-0.17628 -3.53915,-0.0323 -4.49958,0.21822 a 3.0565841,3.0565841 0 0 0 -0.86639,0.32676 z m 17.71677,-7.05761 a 3.8920849,3.8920849 0 0 1 5.50088,0 l 9.73013,9.7354 a 3.8920849,3.8920849 0 1 1 -5.50088,5.50083 l -9.73013,-9.73025 a 3.8920849,3.8920849 0 0 1 0,-5.50077 z"
             clip-rule="evenodd"
             id="path185"
             style="fill:#bb4600;fill-opacity:1;stroke-width:5.18945" />
        </g>
      </g>
    </g>
  </g>
</svg>
