<?xml version="1.0" encoding="UTF-8" standalone="no"?>
<!DOCTYPE svg PUBLIC "-//W3C//DTD SVG 1.1//EN" "http://www.w3.org/Graphics/SVG/1.1/DTD/svg11.dtd">
<svg width="100%" height="100%" viewBox="0 0 500 500" version="1.1" xmlns="http://www.w3.org/2000/svg" xmlns:xlink="http://www.w3.org/1999/xlink" xml:space="preserve" xmlns:serif="http://www.serif.com/" style="fill-rule:evenodd;clip-rule:evenodd;stroke-linejoin:round;stroke-miterlimit:2;">
    <g transform="matrix(19.6186,0,0,19.6186,90.1809,0)">
        <path d="M11.353,22.172C11.353,22.172 13.91,18.967 11.965,15.869C10.02,12.772 7.818,11.454 7.175,9.495C6.723,8.116 7.247,7.838 7.247,7.838C7.247,7.838 10.597,11.115 12.253,13.06C13.91,15.005 14.414,17.994 14.414,17.994C14.414,17.994 16.179,14.319 14.558,10.827C12.516,6.427 9.516,5.821 8.255,3.084C7.378,1.178 7.283,0 7.283,0C7.283,0 6.347,2.003 5.05,3.696C4.031,5.026 2.342,8.942 4.402,12.592C5.662,14.825 7.77,16.407 10.092,19.039C11.314,20.424 11.353,22.172 11.353,22.172Z" style="fill:rgb(247,17,3);fill-rule:nonzero;"/>
        <path d="M9.091,25.486C9.091,25.486 10.398,23.264 9.163,20.912C8.055,18.799 4.481,15.437 3.185,13.42C2.349,12.119 1.996,10.647 1.996,10.647C1.996,10.647 0.406,13.412 1.348,15.941C2.34,18.605 6.426,21.596 7.507,23.037C8.587,24.477 9.091,25.486 9.091,25.486Z" style="fill:rgb(253,108,3);fill-rule:nonzero;"/>
    </g>
</svg>
