<?xml version="1.0" encoding="UTF-8" standalone="no"?>
<!DOCTYPE svg PUBLIC "-//W3C//DTD SVG 1.1//EN" "http://www.w3.org/Graphics/SVG/1.1/DTD/svg11.dtd">
<svg width="100%" height="100%" viewBox="0 0 284 284" version="1.1" xmlns="http://www.w3.org/2000/svg" xmlns:xlink="http://www.w3.org/1999/xlink" xml:space="preserve" xmlns:serif="http://www.serif.com/" style="fill-rule:evenodd;clip-rule:evenodd;">
    <g transform="matrix(8.45197,0,0,8.45197,-511.806,-794.548)">
        <g id="layer1">
            <g id="g3025">
                <path id="path5874" d="M66.432,97.489C61.236,103.135 62.495,113.658 69.243,120.991C75.991,128.323 85.672,129.69 90.868,124.044C96.064,118.397 94.808,107.874 88.061,100.541C81.313,93.209 71.628,91.842 66.432,97.489ZM71.144,99.834C75.226,95.398 82.733,96.363 87.911,101.99C93.089,107.618 93.977,115.775 89.895,120.212C85.812,124.648 78.304,123.685 73.126,118.058C67.947,112.43 67.061,104.271 71.144,99.834Z" style="fill:url(#_Radial1);fill-rule:nonzero;"/>
                <path id="rect5876" d="M89.731,99.585C89.731,99.535 89.691,99.494 89.64,99.494L85.473,99.494C85.422,99.494 85.382,99.535 85.382,99.585L85.382,103.753C85.382,103.803 85.422,103.844 85.473,103.844L89.64,103.844C89.691,103.844 89.731,103.803 89.731,103.753L89.731,99.585Z" style="fill:rgb(255,127,42);stroke:rgb(212,85,0);stroke-width:0.74px;"/>
                <path id="rect5878" d="M71.172,105.439C71.172,105.321 71.076,105.225 70.958,105.225L61.141,105.225C61.023,105.225 60.927,105.321 60.927,105.439L60.927,115.255C60.927,115.374 61.023,115.47 61.141,115.47L70.958,115.47C71.076,115.47 71.172,115.374 71.172,115.255L71.172,105.439Z" style="fill:rgb(255,127,42);stroke:rgb(212,85,0);stroke-width:0.74px;"/>
                <path id="rect5880" d="M93.594,118.767C93.594,118.695 93.536,118.637 93.465,118.637L87.534,118.637C87.463,118.637 87.405,118.695 87.405,118.767L87.405,124.697C87.405,124.769 87.463,124.827 87.534,124.827L93.465,124.827C93.536,124.827 93.594,124.769 93.594,124.697L93.594,118.767Z" style="fill:rgb(255,127,42);stroke:rgb(212,85,0);stroke-width:0.74px;"/>
            </g>
        </g>
    </g>
    <defs>
        <radialGradient id="_Radial1" cx="0" cy="0" r="1" gradientUnits="userSpaceOnUse" gradientTransform="matrix(34.1316,-37.0915,113.853,123.727,71.0345,122.884)"><stop offset="0" style="stop-color:rgb(0,140,190);stop-opacity:1"/><stop offset="1" style="stop-color:rgb(178,255,255);stop-opacity:1"/></radialGradient>
    </defs>
</svg>
