<?xml version="1.0" encoding="UTF-8" standalone="no"?>
<!DOCTYPE svg PUBLIC "-//W3C//DTD SVG 1.1//EN" "http://www.w3.org/Graphics/SVG/1.1/DTD/svg11.dtd">
<svg width="100%" height="100%" viewBox="0 0 300 300" version="1.1" xmlns="http://www.w3.org/2000/svg" xmlns:xlink="http://www.w3.org/1999/xlink" xml:space="preserve" xmlns:serif="http://www.serif.com/" style="fill-rule:evenodd;clip-rule:evenodd;stroke-linejoin:round;stroke-miterlimit:2;">
    <g transform="matrix(1.78154,0,0,1.78154,-514.342,-153.778)">
        <path d="M386.719,251.914C382.423,257.331 373.712,254.363 373.608,247.446L372.094,146.271L440.036,146.271C452.342,146.271 459.205,160.503 451.553,170.153L386.719,251.914Z" style="fill:url(#_Linear1);fill-rule:nonzero;"/>
        <path d="M386.719,251.914C382.423,257.331 373.712,254.363 373.608,247.446L372.094,146.271L440.036,146.271C452.342,146.271 459.205,160.503 451.553,170.153L386.719,251.914Z" style="fill:url(#_Linear2);fill-rule:nonzero;"/>
        <path d="M359.088,89.116C363.384,83.698 372.095,86.666 372.199,93.584L372.862,194.758L305.771,194.758C293.465,194.758 286.601,180.526 294.254,170.876L359.088,89.116Z" style="fill:rgb(62,207,142);fill-rule:nonzero;"/>
    </g>
    <defs>
        <linearGradient id="_Linear1" x1="0" y1="0" x2="1" y2="0" gradientUnits="userSpaceOnUse" gradientTransform="matrix(60.408,25.302,-25.302,60.408,372.094,168.704)"><stop offset="0" style="stop-color:rgb(36,147,97);stop-opacity:1"/><stop offset="1" style="stop-color:rgb(62,207,142);stop-opacity:1"/></linearGradient>
        <linearGradient id="_Linear2" x1="0" y1="0" x2="1" y2="0" gradientUnits="userSpaceOnUse" gradientTransform="matrix(27.594,51.877,-51.877,27.594,345.323,132.002)"><stop offset="0" style="stop-color:black;stop-opacity:0.2"/><stop offset="1" style="stop-color:black;stop-opacity:0"/></linearGradient>
    </defs>
</svg>
