<?xml version="1.0" encoding="UTF-8" standalone="no"?>
<!DOCTYPE svg PUBLIC "-//W3C//DTD SVG 1.1//EN" "http://www.w3.org/Graphics/SVG/1.1/DTD/svg11.dtd">
<svg width="100%" height="100%" viewBox="0 0 2500 2500" version="1.1" xmlns="http://www.w3.org/2000/svg" xmlns:xlink="http://www.w3.org/1999/xlink" xml:space="preserve" xmlns:serif="http://www.serif.com/" style="fill-rule:evenodd;clip-rule:evenodd;stroke-linejoin:round;stroke-miterlimit:2;">
    <g transform="matrix(4.73485,0,0,4.73485,-1538.83,-1846.59)">
        <circle cx="589" cy="654" r="264" style="fill:white;"/>
        <clipPath id="_clip1">
            <circle cx="589" cy="654" r="264"/>
        </clipPath>
        <g clip-path="url(#_clip1)">
            <g id="a" transform="matrix(0.2112,0,0,0.2112,325,390)">
                <path d="M2499.86,1868.05C2499.86,1881.74 2499.44,1911.42 2498.62,1934.36C2496.6,1990.46 2492.16,2062.87 2485.43,2095.86C2475.32,2145.43 2460.06,2192.22 2440.16,2231.17C2416.62,2277.24 2386.59,2318.51 2350.91,2354.13C2315.3,2389.68 2274.07,2419.59 2228.07,2443.04C2188.92,2462.99 2141.83,2478.26 2091.97,2488.32C2059.31,2494.92 1987.45,2499.28 1931.7,2501.26C1908.75,2502.08 1879.05,2502.49 1865.41,2502.49L634.395,2502.3C620.706,2502.3 591.023,2501.88 568.091,2501.05C511.98,2499.04 439.578,2494.6 406.587,2487.87C357.012,2477.76 310.217,2462.5 271.272,2442.6C225.198,2419.06 183.931,2389.03 148.313,2353.35C112.766,2317.74 82.854,2276.51 59.409,2230.51C39.453,2191.36 24.185,2144.27 14.119,2094.41C7.527,2061.75 3.164,1989.89 1.179,1934.14C0.364,1911.19 -0.049,1881.49 -0.049,1867.86L0.146,636.833C0.146,623.145 0.564,593.459 1.387,570.527C3.401,514.417 7.847,442.014 14.573,409.026C24.683,359.451 39.941,312.656 59.841,273.708C83.384,227.637 113.416,186.367 149.097,150.75C184.702,115.205 225.933,85.291 271.936,61.843C311.089,41.892 358.176,26.624 408.032,16.558C440.691,9.963 512.554,5.601 568.306,3.618C591.26,2.8 620.955,2.388 634.587,2.388L1865.61,2.585C1879.3,2.585 1908.98,3.003 1931.92,3.826C1988.03,5.84 2060.43,10.286 2093.42,17.012C2142.99,27.122 2189.79,42.38 2228.74,62.28C2274.81,85.823 2316.07,115.854 2351.69,151.536C2387.24,187.141 2417.15,228.369 2440.6,274.375C2460.55,313.528 2475.82,360.613 2485.89,410.469C2492.48,443.13 2496.84,514.99 2498.83,570.745C2499.64,593.699 2500.06,623.391 2500.06,637.029L2499.86,1868.05Z" style="fill:url(#_Linear2);fill-rule:nonzero;"/>
            </g>
        </g>
    </g>
    <g transform="matrix(0.830813,0,0,0.830813,191.2,223.655)">
        <path d="M1912.36,593.862C1743.1,424.46 1518,331.121 1278.17,331.025C784.026,331.025 381.851,733.047 381.653,1227.2C381.589,1385.15 422.871,1539.34 501.323,1675.25L374.136,2139.68L849.392,2015.05C980.339,2086.45 1127.77,2124.07 1277.82,2124.14L1278.18,2124.14C1772.28,2124.14 2174.49,1722.07 2174.69,1227.91C2174.79,988.44 2081.62,763.264 1912.36,593.862ZM1278.18,1972.77L1277.88,1972.77C1144.17,1972.72 1013.03,1936.81 898.621,1868.94L871.409,1852.8L589.385,1926.76L664.663,1651.87L646.941,1623.69C572.351,1505.09 532.957,1368 533.015,1227.26C533.176,816.541 867.451,482.393 1278.47,482.393C1477.5,482.468 1664.59,560.056 1805.28,700.854C1945.96,841.653 2023.4,1028.81 2023.32,1227.85C2023.16,1638.6 1688.89,1972.77 1278.18,1972.77ZM1686.91,1414.87C1664.51,1403.66 1554.38,1349.49 1533.84,1342.01C1513.31,1334.54 1498.38,1330.8 1483.44,1353.23C1468.51,1375.64 1425.58,1426.08 1412.51,1441.03C1399.44,1455.97 1386.38,1457.84 1363.98,1446.63C1341.58,1435.42 1269.4,1411.78 1183.84,1335.49C1117.25,1276.11 1072.29,1202.77 1059.22,1180.35C1046.15,1157.93 1057.83,1145.82 1069.04,1134.65C1079.12,1124.62 1091.44,1108.49 1102.64,1095.42C1113.84,1082.34 1117.58,1073 1125.04,1058.05C1132.51,1043.11 1128.78,1030.03 1123.18,1018.82C1117.58,1007.61 1072.78,897.388 1054.11,852.551C1035.93,808.884 1017.46,814.792 1003.71,814.106C990.654,813.457 975.706,813.32 960.774,813.32C945.842,813.32 921.572,818.923 901.04,841.343C880.508,863.762 822.639,917.939 822.639,1028.16C822.639,1138.38 902.905,1244.87 914.106,1259.81C925.308,1274.76 1072.06,1500.95 1296.78,1597.95C1350.22,1621.03 1391.95,1634.81 1424.48,1645.13C1478.14,1662.17 1526.98,1659.76 1565.58,1654C1608.61,1647.57 1698.11,1599.83 1716.78,1547.52C1735.44,1495.2 1735.44,1450.37 1729.84,1441.03C1724.24,1431.69 1709.31,1426.08 1686.91,1414.87Z" style="fill:white;fill-rule:nonzero;"/>
    </g>
    <defs>
        <linearGradient id="_Linear2" x1="0" y1="0" x2="1" y2="0" gradientUnits="userSpaceOnUse" gradientTransform="matrix(1.53088e-13,2500.11,-2500.11,1.53088e-13,1250,2.3877)"><stop offset="0" style="stop-color:rgb(97,253,125);stop-opacity:1"/><stop offset="1" style="stop-color:rgb(43,184,38);stop-opacity:1"/></linearGradient>
    </defs>
</svg>
