<?xml version="1.0" encoding="UTF-8" standalone="no"?><!-- Generator: Gravit.io --><svg xmlns="http://www.w3.org/2000/svg" xmlns:xlink="http://www.w3.org/1999/xlink" style="isolation:isolate" viewBox="87.994 266.116 17.015 45.769" width="17.015pt" height="45.769pt"><g><circle vector-effect="non-scaling-stroke" cx="90.39673521702474" cy="295.41930022818417" r="2.214979584629262" fill="rgb(255,255,255)"/><path d=" M 88.628 298.797 C 88.277 298.797 87.994 299.09 87.994 299.455 L 87.994 310.692 C 88.189 311.241 88.565 311.673 89.034 311.884 L 92.165 311.884 C 92.516 311.884 92.799 311.591 92.799 311.227 L 92.799 300.117 C 92.658 299.464 92.249 298.957 91.729 298.797 L 88.628 298.797 Z " fill="rgb(255,255,255)"/><circle vector-effect="non-scaling-stroke" cx="96.50199222870945" cy="295.41930022818417" r="2.214979584629262" fill="rgb(255,255,255)"/><path d="M 94.734 298.74 L 98.266 298.74 C 98.616 298.74 98.9 299.024 98.9 299.374 L 98.9 311.196 C 98.9 311.546 98.616 311.83 98.266 311.83 L 94.734 311.83 C 94.384 311.83 94.1 311.546 94.1 311.196 L 94.1 299.374 C 94.1 299.024 94.384 298.74 94.734 298.74 Z" style="stroke:none;fill:#FFFFFF;stroke-miterlimit:10;"/><circle vector-effect="non-scaling-stroke" cx="102.60724785779047" cy="295.41930022818417" r="2.214979584629262" fill="rgb(255,255,255)"/><path d=" M 104.375 298.744 C 104.727 298.744 105.01 299.037 105.01 299.402 L 105.01 310.639 C 104.815 311.188 104.439 311.62 103.97 311.831 L 100.839 311.831 C 100.488 311.831 100.205 311.538 100.205 311.174 L 100.205 300.064 C 100.346 299.411 100.755 298.904 101.275 298.744 L 104.375 298.744 Z " fill="rgb(255,255,255)"/><path d=" M 99.347 288.288 C 99.347 288.288 101.904 285.083 99.959 281.985 C 98.014 278.888 95.812 277.57 95.169 275.611 C 94.717 274.232 95.241 273.954 95.241 273.954 C 95.241 273.954 98.591 277.231 100.247 279.176 C 101.904 281.121 102.408 284.11 102.408 284.11 C 102.408 284.11 104.173 280.435 102.552 276.943 C 100.51 272.543 97.51 271.937 96.249 269.2 C 95.372 267.294 95.277 266.116 95.277 266.116 C 95.277 266.116 94.341 268.119 93.044 269.812 C 92.025 271.142 90.336 275.058 92.396 278.708 C 93.656 280.941 95.764 282.523 98.086 285.155 C 99.308 286.54 99.347 288.288 99.347 288.288 L 99.347 288.288 Z " fill="rgb(255,255,255)"/><path d=" M 97.085 291.602 C 97.085 291.602 98.392 289.38 97.157 287.028 C 96.049 284.915 92.475 281.553 91.179 279.536 C 90.343 278.235 89.99 276.763 89.99 276.763 C 89.99 276.763 88.4 279.528 89.342 282.057 C 90.334 284.721 94.42 287.712 95.501 289.153 C 96.581 290.593 97.085 291.602 97.085 291.602 Z " fill="rgb(255,255,255)"/></g></svg>