<?xml version="1.0" standalone="no"?>
<!DOCTYPE svg PUBLIC "-//W3C//DTD SVG 20010904//EN"
 "http://www.w3.org/TR/2001/REC-SVG-20010904/DTD/svg10.dtd">
<svg version="1.0" xmlns="http://www.w3.org/2000/svg"
 width="512.000000pt" height="512.000000pt" viewBox="0 0 512.000000 512.000000"
 preserveAspectRatio="xMidYMid meet">
<metadata>
Created by potrace 1.14, written by Peter Selinger 2001-2017
</metadata>
<g transform="translate(0.000000,512.000000) scale(0.100000,-0.100000)"
fill="#000000" stroke="none">
<path d="M2400 4724 c0 -5 -34 -72 -76 -149 -81 -148 -181 -306 -290 -458
-309 -430 -369 -1028 -148 -1469 101 -202 227 -358 587 -726 280 -286 405
-420 464 -497 75 -98 130 -233 161 -390 l18 -89 38 59 c162 257 222 549 161
786 -50 191 -209 423 -551 805 -164 182 -222 252 -273 327 -111 163 -161 385
-103 457 17 21 21 17 303 -267 455 -460 606 -630 703 -796 92 -156 184 -396
227 -590 7 -32 16 -54 20 -50 16 16 78 220 99 323 76 375 31 692 -143 1012
-145 265 -266 408 -610 720 -198 180 -272 260 -346 373 -76 118 -181 387 -212
545 -11 57 -29 103 -29 74z"/>
<path d="M1467 2832 c-86 -190 -121 -363 -114 -562 5 -150 23 -223 85 -345
107 -214 237 -361 812 -920 196 -191 281 -298 409 -517 31 -53 59 -97 62 -98
17 -1 74 166 90 264 16 105 7 272 -21 361 -66 209 -171 351 -718 974 -338 385
-444 547 -536 822 l-33 99 -36 -78z"/>
</g>
</svg>
