<?xml version="1.0" standalone="no"?>
<!DOCTYPE svg PUBLIC "-//W3C//DTD SVG 20010904//EN"
 "http://www.w3.org/TR/2001/REC-SVG-20010904/DTD/svg10.dtd">
<svg version="1.0" xmlns="http://www.w3.org/2000/svg"
 width="512.000000pt" height="512.000000pt" viewBox="0 0 512.000000 512.000000"
 preserveAspectRatio="xMidYMid meet">
<metadata>
Created by potrace 1.14, written by Peter Selinger 2001-2017
</metadata>
<g transform="translate(0.000000,512.000000) scale(0.100000,-0.100000)"
fill="#000000" stroke="none">
<path d="M3525 4798 c-83 -14 -189 -40 -200 -49 -5 -5 -16 -9 -25 -9 -8 0 -55
-20 -104 -45 -268 -135 -473 -363 -570 -634 -52 -144 -59 -201 -62 -451 -1
-129 -4 -246 -8 -260 -3 -14 -8 -38 -12 -55 -19 -89 -78 -172 -184 -257 -25
-20 -115 -94 -201 -165 -86 -70 -175 -144 -199 -163 -25 -19 -60 -49 -80 -66
-38 -33 -632 -523 -684 -564 -17 -13 -69 -56 -116 -95 -47 -39 -94 -78 -105
-87 -11 -9 -54 -44 -95 -78 -41 -34 -84 -69 -95 -78 -11 -9 -60 -50 -110 -90
-182 -149 -240 -216 -300 -345 -157 -343 -10 -752 331 -921 107 -52 182 -70
309 -70 132 0 207 17 322 75 129 65 179 116 528 544 44 54 96 117 115 140 19
23 51 61 70 85 19 24 40 48 45 54 6 6 48 58 95 116 46 58 87 107 90 110 3 3
25 30 50 60 25 30 47 57 50 60 3 3 23 28 45 55 49 61 71 88 110 134 17 20 103
124 190 231 88 107 162 197 165 200 4 5 105 127 155 190 44 55 116 120 154
140 87 44 153 53 391 55 262 2 299 6 421 46 200 65 322 140 475 293 154 155
262 358 304 573 16 79 22 276 11 343 -5 30 -12 71 -15 90 -13 73 -39 139 -66
165 -52 50 -129 62 -190 30 -14 -8 -187 -176 -385 -374 -198 -199 -368 -361
-377 -361 -30 0 -147 47 -188 75 -100 69 -190 200 -206 300 l-6 38 366 366
c201 201 370 380 377 396 25 62 4 146 -45 186 -20 17 -97 45 -146 54 -143 25
-293 30 -395 13z m-2421 -3623 c138 -66 102 -278 -51 -301 -63 -9 -128 23
-160 81 -77 136 69 287 211 220z"/>
<path d="M661 4723 c-24 -5 -205 -173 -242 -225 -24 -34 -32 -103 -17 -143 6
-16 37 -72 67 -123 31 -51 61 -100 66 -110 10 -16 246 -411 265 -442 5 -8 28
-46 51 -85 48 -81 84 -123 119 -138 14 -6 107 -11 212 -12 l187 -1 217 -217
c119 -119 220 -217 225 -217 14 0 324 259 324 271 0 6 -103 113 -230 239
l-229 229 -1 188 c-2 201 -6 224 -57 269 -18 16 -464 289 -573 350 -11 6 -72
43 -135 81 -150 90 -176 99 -249 86z"/>
<path d="M3430 2242 c-81 -8 -88 -15 -280 -249 -102 -125 -250 -305 -328 -402
l-144 -174 454 -454 c249 -250 480 -475 513 -500 126 -96 266 -145 425 -149
244 -6 457 102 606 306 79 108 122 233 129 376 8 149 -27 286 -106 422 -24 39
-151 174 -417 442 l-383 385 -222 0 c-122 0 -233 -1 -247 -3z m170 -507 c14
-7 127 -116 252 -242 193 -195 227 -234 233 -266 25 -131 -98 -234 -218 -183
-18 7 -133 115 -256 239 -217 217 -250 259 -246 307 1 8 3 27 3 42 2 36 62
102 104 115 39 11 93 6 128 -12z"/>
</g>
</svg>
