<?xml version="1.0" standalone="no"?>
<!DOCTYPE svg PUBLIC "-//W3C//DTD SVG 20010904//EN"
 "http://www.w3.org/TR/2001/REC-SVG-20010904/DTD/svg10.dtd">
<svg version="1.0" xmlns="http://www.w3.org/2000/svg"
 width="512.000000pt" height="512.000000pt" viewBox="0 0 512.000000 512.000000"
 preserveAspectRatio="xMidYMid meet">
<metadata>
Created by potrace 1.14, written by Peter Selinger 2001-2017
</metadata>
<g transform="translate(0.000000,512.000000) scale(0.100000,-0.100000)"
fill="#000000" stroke="none">
<path d="M3496 4793 c-404 -71 -745 -365 -876 -753 -47 -139 -58 -230 -56
-449 3 -241 -15 -334 -79 -429 l-25 -36 43 -13 c128 -37 194 -228 124 -362
-20 -40 -23 -51 -11 -51 22 0 32 -39 22 -83 -12 -53 -24 -74 -47 -82 -12 -3
-23 -19 -27 -38 -3 -17 -22 -53 -40 -81 -31 -44 -33 -51 -21 -70 25 -38 113
-82 222 -110 59 -16 120 -35 135 -44 16 -9 30 -14 32 -12 2 3 33 41 68 85 36
44 74 91 85 105 43 54 116 120 154 140 88 44 144 52 386 55 268 2 304 6 426
46 200 65 322 140 475 293 154 155 262 358 304 573 16 79 22 276 11 343 -5 30
-12 71 -15 90 -13 73 -39 139 -66 165 -52 50 -129 62 -190 30 -14 -8 -187
-176 -385 -374 -198 -199 -368 -361 -377 -361 -30 0 -147 47 -188 75 -100 69
-190 200 -206 300 l-6 38 366 366 c201 201 370 380 377 396 24 59 4 147 -40
183 -27 22 -81 41 -158 57 -13 3 -35 8 -50 11 -60 13 -290 11 -367 -3z"/>
<path d="M661 4723 c-34 -7 -230 -199 -252 -248 -33 -72 -28 -94 61 -243 30
-51 60 -100 65 -110 6 -9 65 -109 133 -222 148 -245 132 -219 183 -305 48 -81
84 -123 119 -138 14 -6 107 -11 212 -12 l187 -2 217 -216 c119 -119 220 -217
225 -217 14 0 324 259 324 271 0 6 -103 113 -230 239 l-229 229 -1 188 c-2
201 -6 224 -57 269 -18 16 -464 289 -573 350 -11 6 -72 43 -135 81 -150 90
-176 99 -249 86z"/>
<path d="M1944 2696 c-28 -23 -201 -165 -384 -316 -183 -151 -361 -297 -394
-324 -34 -27 -86 -70 -116 -95 -30 -25 -63 -53 -75 -63 -81 -66 -173 -142
-190 -156 -11 -9 -60 -50 -110 -90 -182 -149 -240 -216 -300 -345 -110 -241
-74 -523 95 -731 27 -33 55 -66 62 -71 174 -144 313 -196 501 -190 123 4 196
22 304 76 129 65 179 116 528 544 44 54 96 117 115 140 19 23 51 61 70 85 48
60 188 230 214 260 11 14 41 50 66 80 25 30 47 57 50 60 3 3 23 28 45 55 22
28 44 55 50 61 22 24 170 207 177 218 5 9 -113 12 -510 11 -284 0 -523 1 -530
4 -13 4 -12 32 3 112 16 81 98 169 178 189 162 42 238 72 277 109 47 44 49 60
14 106 -14 18 -29 48 -34 67 -6 20 -21 39 -39 50 -25 14 -30 24 -36 72 -6 44
-4 61 9 82 29 43 13 43 -40 0z"/>
<path d="M3430 2242 c-81 -8 -88 -15 -280 -249 -102 -125 -250 -305 -328 -402
l-144 -174 454 -454 c249 -250 480 -475 513 -500 124 -95 261 -143 420 -148
161 -5 300 36 432 127 134 91 245 250 290 412 35 129 22 316 -30 446 -53 131
-81 164 -475 560 l-383 385 -222 0 c-122 0 -233 -1 -247 -3z m170 -507 c14 -7
127 -116 252 -242 193 -195 227 -234 233 -266 25 -130 -99 -234 -218 -183 -45
19 -465 441 -487 489 -9 21 -16 48 -15 60 1 12 3 32 4 44 2 32 64 98 103 110
39 11 93 6 128 -12z"/>
</g>
</svg>
