<?xml version="1.0" encoding="UTF-8" standalone="no"?>
<svg
   viewBox="0 0 512 512"
   fill="currentColor"
   class="w-6 h-6"
   version="1.1"
   id="svg8"
   sodipodi:docname="animation.svg"
   inkscape:version="1.2.1 (9c6d41e410, 2022-07-14)"
   width="512"
   height="512"
   xml:space="preserve"
   xmlns:inkscape="http://www.inkscape.org/namespaces/inkscape"
   xmlns:sodipodi="http://sodipodi.sourceforge.net/DTD/sodipodi-0.dtd"
   xmlns="http://www.w3.org/2000/svg"
   xmlns:svg="http://www.w3.org/2000/svg"><defs
     id="defs12" /><sodipodi:namedview
     id="namedview10"
     pagecolor="#ffffff"
     bordercolor="#cccccc"
     borderopacity="1"
     inkscape:showpageshadow="0"
     inkscape:pageopacity="1"
     inkscape:pagecheckerboard="0"
     inkscape:deskcolor="#d1d1d1"
     showgrid="false"
     inkscape:zoom="1.4805048"
     inkscape:cx="288.07741"
     inkscape:cy="239.44535"
     inkscape:window-width="1920"
     inkscape:window-height="991"
     inkscape:window-x="-9"
     inkscape:window-y="-9"
     inkscape:window-maximized="1"
     inkscape:current-layer="svg8" /><g
     id="g11023"
     transform="matrix(1.8857263,0,0,1.8857263,-271.43041,-408.48093)"><path
       style="fill:#000000;stroke-width:1.33333"
       d="m 337.9508,413.03233 c -9.01066,-2.1242 -21.37919,-9.3817 -29.0327,-17.03554 -30.26022,-30.26154 -21.07418,-81.16378 17.99552,-99.71791 18.85356,-8.95351 42.04547,-7.59015 59.07012,3.4725 14.16252,9.20282 23.38676,21.99071 27.6393,38.3173 8.01281,30.76327 -11.06202,64.21267 -42.13239,73.88285 -8.65755,2.69454 -24.52553,3.20587 -33.53985,1.0808 z"
       id="path10872"
       sodipodi:nodetypes="sssssss" /><path
       d="m 258.13477,410.00516 c -10.72993,-4.41388 -15.96284,-7.9396 -23.08483,-15.55359 -12.40164,-13.25834 -18.65591,-33.64658 -15.73277,-51.28713 4.23592,-25.563 24.5964,-46.86413 48.96143,-51.22345 6.47206,-1.15796 6.57028,-1.12862 3.36485,1.00525 -18.06468,12.02575 -30.69818,36.52524 -30.69818,59.53137 0,20.07648 10.1727,42.51162 25.06319,55.275 5.76069,4.93778 5.99931,5.37258 2.93681,5.35142 -1.83334,-0.0133 -6.69806,-1.40716 -10.8105,-3.09887 z"
       style="fill:#000000;fill-opacity:0.6;stroke-width:1.33333"
       id="path10929" /><path
       d="m 220.80143,410.00516 c -10.72993,-4.41388 -15.96284,-7.9396 -23.08483,-15.55359 -12.40164,-13.25834 -18.65591,-33.64658 -15.73277,-51.28713 4.23592,-25.563 24.5964,-46.86413 48.96143,-51.22345 6.47206,-1.15796 6.57028,-1.12862 3.36485,1.00525 -18.06468,12.02575 -30.69818,36.52524 -30.69818,59.53137 0,20.07648 10.1727,42.51162 25.06319,55.275 5.76069,4.93778 5.99931,5.37258 2.93681,5.35142 -1.83334,-0.0133 -6.69806,-1.40716 -10.8105,-3.09887 z"
       style="fill:#000000;fill-opacity:0.4;stroke-width:1.33333"
       id="path10944" /><path
       d="m 183.4681,410.00516 c -10.72993,-4.41388 -15.96284,-7.9396 -23.08483,-15.55359 -12.40164,-13.25834 -18.65591,-33.64658 -15.73277,-51.28713 4.23592,-25.563 24.5964,-46.86413 48.96143,-51.22345 6.47206,-1.15796 6.57028,-1.12862 3.36485,1.00525 -18.06468,12.02575 -30.69818,36.52524 -30.69818,59.53137 0,20.07648 10.1727,42.51162 25.06319,55.275 5.76069,4.93778 5.99931,5.37258 2.93681,5.35142 -1.83334,-0.0133 -6.69806,-1.40716 -10.8105,-3.09887 z"
       style="fill:#000000;fill-opacity:0.2;stroke-width:1.33333"
       id="path10946" /><path
       d="m 295.4681,410.00516 c -10.72993,-4.41388 -15.96284,-7.9396 -23.08483,-15.55359 -12.40164,-13.25834 -18.65591,-33.64658 -15.73277,-51.28713 4.23592,-25.563 24.5964,-46.86413 48.96143,-51.22345 6.47206,-1.15796 6.57028,-1.12862 3.36485,1.00525 -18.06468,12.02575 -30.69818,36.52524 -30.69818,59.53137 0,20.07648 10.1727,42.51162 25.06319,55.275 5.76069,4.93778 5.99931,5.37258 2.93681,5.35142 -1.83334,-0.0133 -6.69806,-1.40716 -10.8105,-3.09887 z"
       style="fill:#000000;fill-opacity:0.8;stroke-width:1.33333"
       id="path11007" /></g></svg>
