<?xml version="1.0" encoding="UTF-8" standalone="no"?>
<svg
   viewBox="0 0 512 512"
   fill="currentColor"
   class="w-6 h-6"
   version="1.1"
   id="svg8"
   sodipodi:docname="engineering.svg"
   inkscape:version="1.2.1 (9c6d41e410, 2022-07-14)"
   width="512"
   height="512"
   xml:space="preserve"
   xmlns:inkscape="http://www.inkscape.org/namespaces/inkscape"
   xmlns:sodipodi="http://sodipodi.sourceforge.net/DTD/sodipodi-0.dtd"
   xmlns="http://www.w3.org/2000/svg"
   xmlns:svg="http://www.w3.org/2000/svg"><defs
     id="defs12" /><sodipodi:namedview
     id="namedview10"
     pagecolor="#ffffff"
     bordercolor="#cccccc"
     borderopacity="1"
     inkscape:showpageshadow="0"
     inkscape:pageopacity="1"
     inkscape:pagecheckerboard="0"
     inkscape:deskcolor="#d1d1d1"
     showgrid="false"
     inkscape:zoom="0.37012621"
     inkscape:cx="293.14325"
     inkscape:cy="241.80941"
     inkscape:window-width="1920"
     inkscape:window-height="991"
     inkscape:window-x="-9"
     inkscape:window-y="-9"
     inkscape:window-maximized="1"
     inkscape:current-layer="svg8" /><path
     style="fill:#000000;stroke-width:0.600981"
     d="m 102.11242,502.42359 c -2.637377,-5.26704 -5.611857,-10.50648 -6.609947,-11.64325 -2.50778,-2.85621 -7.31691,-4.85667 -10.59522,-4.40733 -1.39307,0.19094 -6.79592,1.86332 -12.006337,3.71639 l -9.473486,3.36924 -14.851301,-14.84239 -14.851299,-14.84239 3.461257,-9.9926 c 4.70019,-13.56939 4.657775,-13.29244 2.644982,-17.27066 -2.128379,-4.20666 -4.894493,-6.24827 -15.801808,-11.66289 l -8.477774,-4.20856 v -21.03554 -21.03554 l 9.816451,-4.7455 c 8.196484,-3.96237 10.228445,-5.21355 12.312993,-7.58172 4.429637,-5.03234 4.37256,-6.6571 -0.768957,-21.88954 -1.50154,-4.44852 -2.730075,-8.5073 -2.730075,-9.01951 0,-1.21003 27.666386,-28.86732 28.876816,-28.86732 0.506987,0 4.561495,1.224 9.010017,2.72 15.596761,5.24506 16.768491,5.28676 21.889541,0.77904 2.36816,-2.08456 3.61936,-4.11652 7.581727,-12.313 l 4.74549,-9.81645 h 21.04462 21.04463 l 4.22298,8.56398 c 5.48733,11.12803 7.3916,13.69584 11.73125,15.81905 3.39547,1.66123 3.44713,1.66684 6.80172,0.73803 1.85916,-0.51474 7.20306,-2.28635 11.87536,-3.9369 l 8.49505,-3.001 14.83748,14.84639 14.83748,14.84639 -3.36923,9.47349 c -1.85309,5.21042 -3.52546,10.61327 -3.7164,12.00633 -0.44934,3.27832 1.55113,8.08744 4.40733,10.59522 1.13677,0.99808 6.37622,3.97257 11.64325,6.60996 l 9.57641,4.79526 v 20.71174 20.71173 l -9.66586,4.88882 c -5.31622,2.68886 -10.63228,5.73735 -11.81347,6.77445 -2.47455,2.17268 -4.33059,5.85125 -4.34966,8.62078 -0.007,1.05436 1.49881,6.19275 3.34682,11.41865 1.848,5.2259 3.49444,10.06962 3.65873,10.76382 0.23989,1.0136 -2.58029,4.1412 -14.31976,15.88067 l -14.61848,14.61849 -9.02287,-3.1936 c -11.82004,-4.18365 -13.9669,-4.64755 -17.12678,-3.70082 -4.45756,1.33552 -6.67432,4.0593 -12.30593,15.12064 L 148.30994,512 h -20.70113 -20.70113 z m 35.16789,-48.66585 c 5.27886,-0.38051 7.43598,-0.82783 10.51717,-2.1809 12.8625,-5.64846 26.31638,-19.09538 31.54325,-31.52694 2.13817,-5.08539 3.0159,-16.45236 2.19595,-28.43836 -0.53861,-7.87336 -0.66572,-8.43024 -3.06632,-13.43322 -5.96104,-12.42315 -15.58142,-22.4513 -26.69185,-27.82321 -8.06825,-3.90102 -11.08142,-4.45447 -24.44455,-4.48996 -13.58831,-0.036 -16.11468,0.45663 -25.24121,4.92262 -4.926727,2.41085 -6.540147,3.62169 -11.770567,8.83357 -6.6311,6.60759 -11.70742,13.79824 -14.44631,20.46331 -1.71341,4.16958 -1.73042,4.33351 -1.91839,18.49129 -0.217573,16.38669 0.0257,17.8073 4.51179,26.35331 5.46683,10.4142 15.15373,19.67533 26.490847,25.32651 5.86274,2.92238 6.48151,3.09662 12.32012,3.46924 8.85996,0.56545 12.52665,0.57145 20.00007,0.0328 z m 24.98884,55.17681 c 1.64823,-4.33779 3.81181,-8.43149 5.27195,-9.97507 1.46181,-1.54535 0.68828,-1.71562 16.87844,3.71544 l 9.90857,3.32387 19.99569,-19.98692 c 13.94543,-13.93931 19.88219,-20.25969 19.62059,-20.88839 -1.02146,-2.45491 -8.65052,-24.10949 -8.65052,-24.55396 0,-0.28194 5.34122,-3.03294 11.86938,-6.11335 6.52816,-3.08041 12.20743,-5.85724 12.6206,-6.17072 0.58199,-0.44157 0.75122,-6.84847 0.75122,-28.43927 v -27.8693 l -12.6206,-6.31577 c -6.94132,-3.47367 -12.6206,-6.42492 -12.6206,-6.55835 0,-0.46536 6.00996,-17.2873 6.45881,-18.07828 0.33418,-0.5889 1.94509,0.31229 6.16179,3.44709 6.21107,4.61747 13.28699,8.25134 19.3041,9.91371 2.84832,0.78693 6.07347,1.05887 12.5479,1.05807 10.38861,-0.001 14.26624,-0.85412 23.13778,-5.08877 7.29101,-3.4802 12.25178,-6.97125 21.33482,-15.01395 8.11923,-7.18929 5.57028,-6.92271 23.43826,-2.45118 25.1782,6.30094 32.80372,8.67812 46.27554,14.42588 51.53753,21.98852 89.89292,60.27142 104.48359,104.28607 4.76129,14.36307 6.14787,22.6449 6.99302,41.76819 0.18261,4.13174 0.48658,10.01384 0.67552,13.07133 L 496.44851,512 H 328.77644 161.10438 Z m 98.24332,-184.52909 c -17.92584,-1.5797 -28.4223,-6.40587 -40.98067,-18.84246 -16.20805,-16.05088 -26.92681,-35.43915 -43.19263,-78.12753 -3.28334,-8.6169 -4.63122,-10.53163 -9.55086,-13.56739 -8.18912,-5.05329 -14.36304,-13.12814 -17.00088,-22.2354 -3.78765,-13.07705 -1.95652,-23.75821 6.31939,-36.86161 l 3.76141,-5.95551 -1.39285,-1.30111 c -21.04901,-19.66252 -21.52876,-20.23965 -21.52237,-25.89114 0.008,-6.66948 2.05919,-9.55084 7.29517,-10.24541 1.62798,-0.21596 3.63105,-0.92052 4.45124,-1.5657 0.83045,-0.65322 4.0008,-6.14375 7.15435,-12.39016 8.01315,-15.87208 13.37739,-24.036782 23.21171,-35.32962 13.06045,-14.997452 30.45524,-26.950486 48.87874,-33.587587 4.29591,-1.547606 6.1383,-1.963151 6.61079,-1.49103 0.45002,0.449667 0.74911,11.289215 0.95554,34.631067 l 0.3005,33.97654 32.45297,-0.0622 c 26.62032,-0.051 39.25226,-0.32633 40.06519,-0.87335 0.055,-0.0369 0.25779,-15.25732 0.45073,-33.822961 0.19293,-18.565639 0.516,-33.92064 0.71791,-34.122229 0.56756,-0.566623 11.01009,3.076158 17.31139,6.038918 11.87796,5.584809 19.91983,11.60527 33.16876,24.831451 13.49897,13.475773 19.26661,21.474341 29.20226,40.497671 4.91223,9.40523 6.51959,11.31455 11.90057,14.13626 4.98249,2.61273 6.44538,4.90218 6.54672,10.24575 0.0502,2.64467 -0.24047,3.80587 -1.33743,5.34385 -0.77083,1.08073 -6.27157,6.05747 -12.22386,11.05945 -5.95229,5.00197 -10.95535,9.44108 -11.1179,9.86469 -0.16255,0.42361 1.25393,2.59672 3.14775,4.82913 3.9545,4.66154 6.28481,9.42276 7.75897,15.8529 1.23861,5.40279 1.41101,15.11541 0.35735,20.13288 -2.03647,9.69752 -9.56942,19.16192 -20.57431,25.8496 -2.68907,1.63415 -3.86965,3.96954 -9.20659,18.21248 -13.37916,35.70557 -24.10797,54.97895 -39.07431,70.19367 -17.1071,17.39101 -35.33897,23.1762 -64.84475,20.57603 z m 29.82166,-22.07301 c 6.31085,-1.65801 10.37621,-4.40343 18.23279,-12.31296 10.74022,-10.81259 16.04974,-18.89729 24.37425,-37.11402 6.39872,-14.00252 10.01656,-23.37213 16.43822,-42.57227 l 3.70997,-11.09246 4.39355,-0.80549 c 2.41645,-0.44301 5.37173,-1.30981 6.56728,-1.92621 9.36505,-4.8284 11.89682,-18.82581 5.21378,-28.82538 -3.09562,-4.63182 -5.71316,-3.98227 -14.75265,3.66086 l -4.50086,3.8056 h -79.336 -79.33601 l -2.79349,-1.37621 c -1.53642,-0.75691 -5.02884,-3.31103 -7.76094,-5.67583 l -4.96745,-4.29961 -2.39152,2.67092 c -4.9225,5.4976 -6.29524,11.85088 -4.11298,19.0355 2.10359,6.92561 8.62482,12.75938 14.28282,12.77712 4.14681,0.013 5.26007,2.03491 12.08117,21.94168 17.83404,52.04699 38.20649,80.04931 60.56834,83.25235 1.98323,0.28407 9.42038,0.41736 16.52697,0.29619 10.55164,-0.1799 13.77229,-0.44393 17.56276,-1.43978 z M 246.33773,58.109058 c 0.0118,-31.431978 0.49224,-38.388686 3.00547,-43.516243 2.08938,-4.262798 7.38361,-9.5274685 11.55076,-11.4862575 1.48356,-0.697357 4.50433,-1.749403 6.71281,-2.33788201 3.83046,-1.020671 4.20111,-1.021692 8.04566,-0.02212 11.56136,3.00590401 18.89239,10.24888651 20.5186,20.27213351 0.37775,2.328289 0.63233,15.631007 0.63505,33.183993 l 0.004,29.297828 h -25.24122 -25.2412 l 0.009,-25.391449 z"
     id="path11077" /></svg>
